<svg width="183" height="41" viewBox="0 0 183 41" fill="none" xmlns="http://www.w3.org/2000/svg">
<path d="M12.1883 14.5164C11.5842 14.6806 11.0494 15.0358 10.6638 15.529C10.2782 16.0222 10.0625 16.6269 10.049 17.2528C10.045 17.4342 10.1133 17.6098 10.2388 17.7409C10.3643 17.872 10.5367 17.9478 10.7182 17.9518C10.8996 17.9557 11.0752 17.8875 11.2062 17.762C11.3373 17.6365 11.4132 17.4641 11.4172 17.2826C11.4264 16.9547 11.5414 16.6386 11.7451 16.3814C11.9489 16.1243 12.2303 15.94 12.5474 15.856C12.8646 15.772 13.2003 15.7929 13.5046 15.9156C13.8089 16.0382 14.0653 16.256 14.2356 16.5364C14.312 16.6631 14.4277 16.7615 14.565 16.8167C14.7023 16.8719 14.8539 16.8809 14.9968 16.8423C15.0593 16.8248 15.1194 16.7997 15.1759 16.7677C15.3305 16.6729 15.4413 16.5209 15.4842 16.3447C15.527 16.1686 15.4985 15.9826 15.4048 15.8274C15.0816 15.2913 14.5939 14.8741 14.0142 14.6378C13.4346 14.4016 12.7941 14.359 12.1883 14.5164Z" fill="url(#paint0_linear_370_706)"/>
<path d="M18.2924 15.9072C18.4734 15.9105 18.6483 15.842 18.7789 15.7165C18.9095 15.5911 18.985 15.419 18.9889 15.238C18.9991 14.9103 19.1148 14.5946 19.3188 14.338C19.5228 14.0813 19.8042 13.8974 20.1212 13.8135C20.4382 13.7296 20.7737 13.7504 21.078 13.8726C21.3822 13.9948 21.6389 14.2119 21.8098 14.4918C21.886 14.6188 22.0016 14.7174 22.139 14.7727C22.2764 14.8279 22.4281 14.8367 22.571 14.7977C22.6332 14.7817 22.6928 14.7566 22.7476 14.7231C22.9026 14.6288 23.014 14.4769 23.0573 14.3007C23.1007 14.1245 23.0725 13.9383 22.979 13.7828C22.655 13.2493 22.1668 12.8351 21.5877 12.6022C21.0086 12.3694 20.3696 12.3305 19.7664 12.4913C19.1633 12.6521 18.6285 13.0039 18.2421 13.4942C17.8557 13.9844 17.6386 14.5867 17.6232 15.2107C17.6212 15.3004 17.637 15.3896 17.6696 15.4732C17.7022 15.5569 17.751 15.6332 17.8131 15.6979C17.8753 15.7626 17.9496 15.8144 18.0319 15.8504C18.1141 15.8863 18.2026 15.9056 18.2924 15.9072Z" fill="url(#paint1_linear_370_706)"/>
<path d="M38.7106 21.4036L30.9842 19.911C30.4195 17.518 28.6906 15.7617 27.7777 15.0627C27.8559 14.089 27.7837 13.109 27.5638 12.1572V12.1249C27.3276 11.2419 26.9522 10.4022 26.4518 9.63732C27.1037 8.18838 27.4472 6.61973 27.4605 5.03096C27.4737 3.44219 27.1565 1.86801 26.5289 0.408388C26.4607 0.252428 26.3366 0.127647 26.181 0.0585941C26.0254 -0.0104592 25.8496 -0.0187864 25.6881 0.0352507C23.0013 0.928034 20.7439 2.79069 19.3572 5.25917C17.5169 4.97125 15.6365 5.0736 13.8383 5.55959C12.0401 6.04557 10.3641 6.90433 8.91934 8.08009C6.48353 6.63752 3.59734 6.15501 0.824756 6.72684C0.657465 6.76065 0.509036 6.8562 0.409009 6.99449C0.308981 7.13277 0.26469 7.30365 0.284951 7.47312C0.470318 9.05301 0.983054 10.5769 1.79043 11.9475C2.5978 13.3181 3.68208 14.5053 4.97404 15.4334C4.92672 16.3373 5.02157 17.243 5.25514 18.1175C5.96907 20.7046 7.79993 22.8115 10.4467 24.0404C10.4781 24.0574 10.5105 24.0723 10.5437 24.0852C13.1809 25.2331 16.1319 25.442 18.9045 24.6772C18.9282 24.6747 18.9515 24.6697 18.9741 24.6623C19.1251 24.6098 19.2852 24.5891 19.4445 24.6013C19.6038 24.6136 19.7589 24.6585 19.9001 24.7334C20.0412 24.8083 20.1654 24.9115 20.2648 25.0366C20.3643 25.1617 20.4368 25.3059 20.478 25.4603C20.5192 25.6147 20.5281 25.7759 20.5041 25.9339C20.4801 26.0919 20.4238 26.2432 20.3387 26.3784C20.2536 26.5136 20.1415 26.6299 20.0094 26.7198C19.8774 26.8097 19.7282 26.8715 19.5712 26.9011L19.5065 26.921C15.708 28.3638 10.1333 28.1648 6.81983 26.4907C6.70004 26.4308 6.56519 26.4079 6.43234 26.4247C6.2995 26.4415 6.17463 26.4974 6.07355 26.5852L0.230224 31.7121C0.138484 31.7932 0.0702776 31.8975 0.0327708 32.014C-0.00473603 32.1306 -0.0101579 32.2551 0.0170749 32.3744C0.0443077 32.4938 0.10319 32.6036 0.187533 32.6924C0.271877 32.7811 0.378568 32.8455 0.496395 32.8788L12.3796 36.1674L13.5089 39.2122C13.8074 40.0132 13.9567 40.4162 14.5537 40.2545C14.6446 40.2314 14.7295 40.189 14.8025 40.1301C16.7502 38.5778 19.3821 37.3042 22.2155 36.5455C25.0488 35.7868 27.8598 35.5828 30.32 35.9261C30.4984 35.951 30.6794 35.9042 30.8234 35.7961C30.9674 35.6879 31.0628 35.5272 31.0887 35.349C31.0999 35.2789 31.0999 35.2076 31.0887 35.1375L30.427 31.329L39.0713 22.5379C39.1988 22.4101 39.2703 22.237 39.2703 22.0566C39.2703 21.8761 39.1988 21.703 39.0713 21.5752C38.9761 21.4811 38.8547 21.4178 38.7231 21.3936L38.7106 21.4036ZM6.57356 17.7543C6.34561 16.9062 6.27396 16.0236 6.36211 15.1498C6.37298 15.0239 6.34903 14.8975 6.29287 14.7843C6.23672 14.6711 6.15052 14.5755 6.0437 14.508C4.00921 13.142 2.53933 11.0844 1.90685 8.71691C1.8372 8.46815 1.7775 8.19452 1.73024 7.93332C4.13825 7.59709 6.58638 8.1479 8.61835 9.48309C8.75224 9.56974 8.91235 9.60652 9.07063 9.58696C9.22891 9.5674 9.37526 9.49276 9.48403 9.37612C10.8483 8.19308 12.4641 7.33631 14.2089 6.87082C15.9536 6.40532 17.7815 6.34332 19.5538 6.68953C19.6693 6.72192 19.7915 6.72192 19.907 6.68953C19.9953 6.66349 20.0773 6.61958 20.1479 6.56053C20.2185 6.50147 20.2762 6.42854 20.3174 6.34624C21.409 4.17342 23.2532 2.47153 25.5065 1.55765C25.5961 1.80641 25.6757 2.05517 25.7553 2.32383C26.3896 4.68098 26.1484 7.18816 25.0762 9.38109C25.013 9.49353 24.9834 9.62173 24.9909 9.75048C24.9984 9.87922 25.0427 10.0031 25.1185 10.1075C25.6396 10.8246 26.0242 11.6316 26.2528 12.4881V12.5229C26.5787 13.7418 26.3921 15.3015 26.3921 15.3165C26.3753 15.4488 26.3979 15.5832 26.4572 15.7027C26.5165 15.8222 26.6099 15.9215 26.7255 15.9881C26.7802 16.0205 31.7703 19.5528 28.9419 24.4956C27.9554 26.1408 26.8071 27.6833 25.514 29.1002C25.2771 29.2933 24.9787 29.3948 24.6732 29.3862C24.3254 29.4142 23.9804 29.3063 23.7105 29.0852C23.4859 28.8699 23.3544 28.5753 23.3442 28.2643C23.334 27.9533 23.4458 27.6507 23.6558 27.421C23.6761 27.4024 23.6952 27.3824 23.713 27.3613C24.8654 25.9191 25.6797 24.2369 26.0961 22.4384C26.2937 21.5861 26.1451 20.6902 25.683 19.9473C25.2208 19.2043 24.4828 18.6751 23.6309 18.4757L23.4891 18.4458L17.2975 17.3065C17.1976 17.288 17.0949 17.2919 16.9968 17.3182C16.8986 17.3445 16.8076 17.3923 16.7303 17.4583L10.6955 22.6474C8.59845 21.5752 7.1457 19.8513 6.58599 17.7618L6.57356 17.7543Z" fill="url(#paint2_linear_370_706)"/>
<path d="M106.365 20.5197C107.872 18.8779 109.101 18.4824 110.76 19.2063C111.094 19.3531 111.566 19.8033 111.534 20.0521C111.437 20.7784 111.126 21.4774 110.862 22.174C110.84 22.2262 110.522 22.2088 110.365 22.159C109.522 21.9103 109.275 22.2809 109.28 23.0745C109.303 25.7636 109.211 28.4576 109.303 31.1442C109.494 36.8109 105.163 38.587 101.014 38.2238C99.1025 38.1034 97.301 37.2876 95.9494 35.9303C95.2032 35.184 95.2654 34.7785 96.1982 33.7761C96.8126 33.1069 97.3425 33.2785 97.9072 33.8333C99.3674 35.2935 101.176 35.6766 103.131 35.4029C105.355 35.092 106.537 33.0671 105.932 30.5123C103.765 31.9129 101.482 32.2885 99.0838 31.2785C97.8288 30.7579 96.7871 29.8276 96.1285 28.6392C94.6957 26.1118 95.1335 22.7685 97.1634 20.7585C99.5183 18.4202 102.585 18.3406 106.365 20.5197ZM106.305 25.383C106.311 24.8837 106.216 24.3885 106.027 23.9263C105.839 23.464 105.56 23.0441 105.207 22.6912C104.853 22.3383 104.433 22.0595 103.971 21.8712C103.509 21.6828 103.013 21.5887 102.514 21.5944C102.015 21.5885 101.519 21.6845 101.058 21.8766C100.597 22.0687 100.18 22.3529 99.8321 22.7117C99.4845 23.0705 99.2137 23.4964 99.0363 23.9634C98.8589 24.4304 98.7785 24.9286 98.8002 25.4277C98.835 27.5795 100.387 29.1342 102.532 29.1591C103.03 29.1679 103.525 29.0762 103.987 28.8895C104.449 28.7028 104.868 28.4249 105.22 28.0725C105.573 27.72 105.85 27.3002 106.037 26.8381C106.223 26.376 106.314 25.8811 106.305 25.383Z" fill="#1A231D"/>
<path d="M137.24 24.1169C137.382 20.0298 139.121 17.0646 142.78 15.5198C146.511 13.9452 150.069 14.4327 153.201 17.1417C154.002 17.8357 154.069 18.3432 153.544 18.9178C152.382 20.1915 151.88 20.3208 150.969 19.5845C148.009 17.189 144.355 17.4228 142.183 20.1591C140.263 22.5696 140.504 26.301 142.718 28.4527C144.86 30.5373 148.34 30.607 150.74 28.6144C150.971 28.4063 151.25 28.2592 151.552 28.1863C151.854 28.1135 152.169 28.1173 152.469 28.1974C152.769 28.2775 153.045 28.4313 153.27 28.6449C153.496 28.8585 153.664 29.1251 153.76 29.4204C153.872 29.7438 153.663 30.3358 153.4 30.6095C151.375 32.6941 148.832 33.4727 145.989 33.306C143.955 33.2088 142.012 32.436 140.467 31.11C138.922 29.7839 137.864 27.9805 137.459 25.9851C137.354 25.3666 137.281 24.743 137.24 24.1169Z" fill="#1A231D"/>
<path d="M167.063 20.5601C167.113 19.677 167.352 19.0327 168.444 19.0676C169.936 19.1198 170.115 19.2392 170.115 20.7591C170.115 24.2716 170.115 27.784 170.115 31.2965C170.115 32.5602 169.901 32.8836 169.046 32.9408C167.521 33.0428 167.304 32.8786 167.026 31.3438C165.533 32.7567 163.792 33.4906 161.802 33.2915C159.812 33.0925 158.185 32.2368 156.996 30.6099C154.993 27.8736 155.123 23.7915 157.282 21.2318C158.526 19.7715 160.123 19.0576 161.991 18.9108C163.434 18.8039 163.891 18.983 167.063 20.5601ZM159.103 26.1074C159.073 28.4582 160.715 30.2194 162.949 30.2368C165.182 30.2542 166.802 28.5204 166.814 26.1248C166.827 23.7293 165.247 21.9755 163.016 21.9482C160.784 21.9208 159.135 23.6422 159.103 26.1074Z" fill="#1A231D"/>
<path d="M124.646 26.8756C124.515 29.1616 126.997 31.0621 129.577 30.5447C130.572 30.3457 131.477 29.7786 132.395 29.3159C133.117 28.9502 133.517 29.0895 134.271 30.0621C134.706 30.6169 134.462 31.0049 134.05 31.4054C131.661 33.7263 126.746 33.9627 123.89 31.903C121.142 29.9129 120.248 25.9651 121.818 22.7412C123.241 19.8208 126.557 18.3581 130.047 19.1168C132.99 19.7561 135.035 22.3084 135.154 25.4875C135.196 26.6268 134.943 26.8955 133.791 26.8979L124.646 26.8756ZM131.637 24.6989C131.465 22.5347 129.798 21.3083 127.53 21.5546C125.893 21.7337 124.545 23.2462 124.748 24.6989H131.637Z" fill="#1A231D"/>
<path d="M70.956 31.1803C69.8714 32.7002 68.4112 33.3594 66.6102 33.3147C63.6077 33.2375 61.4087 31.0758 61.3564 28.0708C61.3117 25.4738 61.3564 22.8743 61.3415 20.2772C61.3415 19.414 61.7221 19.0857 62.5654 19.0782C64.8042 19.0633 64.8042 19.0434 64.8042 21.2623C64.8042 23.1877 64.7893 25.1156 64.8042 27.0385C64.8216 28.3295 65.1724 29.4838 66.4908 30.0236C68.4311 30.8395 70.4162 29.5684 70.4908 27.4017C70.568 25.1628 70.5182 22.9414 70.5232 20.7101C70.5232 19.2175 70.66 19.0782 72.1326 19.0757H72.5928C73.8242 19.0757 74.0058 19.2598 74.0083 20.5285C74.0083 23.2499 74.0083 25.9688 74.0083 28.6902C74.0083 28.9962 74.0207 29.3022 74.0257 29.6057C74.0381 30.1728 74.3391 30.3917 74.864 30.2301C75.9461 29.8917 75.859 30.8121 76.1078 31.3644C76.374 31.9738 76.4386 32.5161 75.6799 32.8918C73.864 33.7948 72.1252 33.2798 71.2023 31.5186C71.127 31.4011 71.0447 31.2881 70.956 31.1803Z" fill="#1A231D"/>
<path d="M82.3603 20.782C83.5146 20.1925 84.5991 19.389 85.7957 19.0731C86.5672 18.8639 87.3762 18.8321 88.1618 18.9801C88.9474 19.1281 89.6893 19.452 90.3319 19.9275C90.9745 20.403 91.5011 21.0179 91.8722 21.726C92.2434 22.434 92.4494 23.2169 92.4748 24.0159C92.5868 26.6403 92.5047 29.2722 92.5072 31.904C92.5072 32.5707 92.1788 32.9389 91.5122 32.9413C89.1713 32.9413 89.0096 33.1901 89.0544 30.7025C89.0892 28.8368 89.1042 26.9712 89.0544 25.1055C88.9798 22.6975 87.0942 21.3741 84.9325 22.1403C83.6887 22.588 83.0394 23.5905 83.0121 25.2647C82.9772 27.2547 83.0121 29.2448 82.9748 31.2349C82.9748 31.8194 83.2061 32.6528 82.4424 32.8195C81.6163 32.9522 80.7726 32.9294 79.9548 32.7523C79.7583 32.7175 79.5568 32.0458 79.5518 31.6652C79.517 28.8816 79.5344 26.1005 79.5319 23.3169C79.5319 22.0731 79.5319 22.0731 78.3354 22.2074C78.2185 22.2224 78.012 22.2572 77.9971 22.2224C77.726 21.5656 77.3852 20.9139 77.2657 20.2323C77.2185 19.9562 77.5966 19.4537 77.9051 19.2945C79.6961 18.3442 81.2658 18.9512 82.3603 20.782Z" fill="#1A231D"/>
<path d="M57.6368 27.7682C57.3656 32.1811 53.8929 33.6811 50.4228 33.2408C48.9201 33.0778 47.5209 32.3971 46.465 31.3154C45.7859 30.6214 45.7884 30.2309 46.4526 29.5244C46.6218 29.3478 46.8108 29.1886 46.9675 29.002C47.5471 28.3179 48.0994 28.3179 48.7362 28.9597C49.6243 29.8552 50.6914 30.3204 51.97 29.997C53.3233 29.6587 54.1218 28.7035 54.1517 27.1885C54.2089 24.3452 54.1691 21.5019 54.1964 18.6586C54.1964 18.0591 53.9104 17.9397 53.4054 17.9472C52.3059 17.9472 51.2039 17.9646 50.1044 17.9472C49.1243 17.9273 48.9675 17.7109 48.9651 16.5118C48.9626 15.3128 49.1516 15.069 50.1069 15.0616C52.2462 15.0417 54.388 15.0616 56.5273 15.0616C57.3382 15.0616 57.6989 15.4397 57.694 16.2357C57.694 18.1611 57.694 20.0865 57.694 22.0144C57.679 21.9945 57.7537 25.8502 57.6368 27.7682Z" fill="#1A231D"/>
<path d="M174.677 21.8301C172.351 21.5639 172.286 21.5266 172.261 20.4893C172.234 19.3823 172.313 19.3301 174.726 18.9968C174.726 18.0241 174.769 17.0241 174.726 16.0291C174.677 15.0788 175.082 14.6559 176.003 14.4917C178.164 14.1037 178.207 14.1136 178.207 16.3475V19.0888C179.246 19.0888 180.184 19.0888 181.122 19.0888C182.06 19.0888 182.301 19.3624 182.301 20.4022C182.301 21.4421 182.067 21.7207 181.134 21.7381C180.202 21.7555 179.256 21.7381 178.256 21.7381C178.256 24.1361 178.177 26.4247 178.289 28.7033C178.351 30.0043 179.619 30.5765 180.906 30.0665C182.192 29.5565 182.204 29.569 182.647 30.564C183.231 31.8849 183.144 32.1785 181.98 32.7382C179.057 34.1337 174.622 33.0491 174.729 28.3526C174.761 26.5615 174.694 22.2281 174.677 21.8301Z" fill="#1A231D"/>
<path d="M113.864 15.186C113.847 14.293 114.158 13.8527 115.038 13.6487C117.24 13.1363 117.367 13.2134 117.367 15.502C117.367 19.9382 117.367 24.3735 117.367 28.808C117.367 30.0369 117.367 30.012 118.546 30.0891C118.685 30.1098 118.818 30.1606 118.936 30.2379C119.053 30.3153 119.153 30.4173 119.227 30.5369C120.085 32.1936 119.653 32.9971 117.799 33.2733C115.493 33.629 113.904 32.2981 113.884 29.9474C113.864 27.517 113.909 17.6736 113.864 15.186Z" fill="#1A231D"/>
<defs>
<linearGradient id="paint0_linear_370_706" x1="11.3443" y1="14.529" x2="12.6132" y2="18.83" gradientUnits="userSpaceOnUse">
<stop stop-color="#419FFF"/>
<stop offset="1" stop-color="#0779FF"/>
</linearGradient>
<linearGradient id="paint1_linear_370_706" x1="18.9184" y1="12.4992" x2="20.1772" y2="16.7845" gradientUnits="userSpaceOnUse">
<stop stop-color="#419FFF"/>
<stop offset="1" stop-color="#0779FF"/>
</linearGradient>
<linearGradient id="paint2_linear_370_706" x1="9.3267" y1="1.20869" x2="29.8154" y2="45.0032" gradientUnits="userSpaceOnUse">
<stop stop-color="#419FFF"/>
<stop offset="1" stop-color="#0779FF"/>
</linearGradient>
</defs>
</svg>
