<svg width="216" height="196" viewBox="0 0 216 196" fill="none" xmlns="http://www.w3.org/2000/svg">
<path d="M39.196 81.1705V87H37.2848V73.9091H39.1705V78.7798H39.2919C39.522 78.2514 39.8736 77.8317 40.3466 77.5206C40.8196 77.2095 41.4375 77.054 42.2003 77.054C42.8736 77.054 43.4616 77.1925 43.9645 77.4695C44.4716 77.7464 44.8636 78.1598 45.1406 78.7095C45.4219 79.255 45.5625 79.9368 45.5625 80.755V87H43.6513V80.9851C43.6513 80.2649 43.4659 79.7067 43.0952 79.3104C42.7244 78.9098 42.2088 78.7095 41.5483 78.7095C41.0966 78.7095 40.6918 78.8054 40.3338 78.9972C39.9801 79.1889 39.701 79.4702 39.4964 79.8409C39.2962 80.2074 39.196 80.6506 39.196 81.1705ZM52.3445 87.1982C51.3771 87.1982 50.544 86.9915 49.8452 86.5781C49.1506 86.1605 48.6136 85.5746 48.2344 84.8203C47.8594 84.0618 47.6719 83.1733 47.6719 82.1548C47.6719 81.1491 47.8594 80.2628 48.2344 79.4957C48.6136 78.7287 49.142 78.13 49.8196 77.6996C50.5014 77.2692 51.2983 77.054 52.2102 77.054C52.7642 77.054 53.3011 77.1456 53.821 77.3288C54.3409 77.5121 54.8075 77.7997 55.2209 78.1918C55.6342 78.5838 55.9602 79.093 56.1989 79.7195C56.4375 80.3416 56.5568 81.098 56.5568 81.9886V82.6662H48.7521V81.2344H54.6839C54.6839 80.7315 54.5817 80.2862 54.3771 79.8984C54.1726 79.5064 53.8849 79.1974 53.5142 78.9716C53.1477 78.7457 52.7173 78.6328 52.223 78.6328C51.6861 78.6328 51.2173 78.7649 50.8168 79.0291C50.4205 79.2891 50.1136 79.63 49.8963 80.0518C49.6832 80.4695 49.5767 80.9233 49.5767 81.4134V82.532C49.5767 83.1882 49.6918 83.7464 49.9219 84.2067C50.1562 84.6669 50.4822 85.0185 50.8999 85.2614C51.3175 85.5 51.8054 85.6193 52.3636 85.6193C52.7259 85.6193 53.0561 85.5682 53.3544 85.4659C53.6527 85.3594 53.9105 85.2017 54.1278 84.9929C54.3452 84.7841 54.5114 84.5263 54.6264 84.2195L56.4354 84.5455C56.2905 85.0781 56.0305 85.5447 55.6555 85.9453C55.2848 86.3416 54.8182 86.6506 54.2557 86.8722C53.6974 87.0895 53.0604 87.1982 52.3445 87.1982ZM60.5886 73.9091V87H58.6774V73.9091H60.5886ZM65.071 73.9091V87H63.1598V73.9091H65.071ZM71.7779 87.1982C70.8574 87.1982 70.0542 86.9872 69.3681 86.5653C68.682 86.1435 68.1493 85.5533 67.7701 84.7947C67.3908 84.0362 67.2012 83.1499 67.2012 82.1357C67.2012 81.1172 67.3908 80.2266 67.7701 79.4638C68.1493 78.701 68.682 78.1087 69.3681 77.6868C70.0542 77.2649 70.8574 77.054 71.7779 77.054C72.6983 77.054 73.5016 77.2649 74.1877 77.6868C74.8738 78.1087 75.4064 78.701 75.7857 79.4638C76.165 80.2266 76.3546 81.1172 76.3546 82.1357C76.3546 83.1499 76.165 84.0362 75.7857 84.7947C75.4064 85.5533 74.8738 86.1435 74.1877 86.5653C73.5016 86.9872 72.6983 87.1982 71.7779 87.1982ZM71.7843 85.5938C72.3809 85.5938 72.8752 85.4361 73.2672 85.1207C73.6593 84.8054 73.949 84.3857 74.1365 83.8615C74.3283 83.3374 74.4242 82.7599 74.4242 82.1293C74.4242 81.5028 74.3283 80.9276 74.1365 80.4034C73.949 79.875 73.6593 79.451 73.2672 79.1314C72.8752 78.8118 72.3809 78.652 71.7843 78.652C71.1834 78.652 70.6848 78.8118 70.2885 79.1314C69.8965 79.451 69.6046 79.875 69.4128 80.4034C69.2253 80.9276 69.1316 81.5028 69.1316 82.1293C69.1316 82.7599 69.2253 83.3374 69.4128 83.8615C69.6046 84.3857 69.8965 84.8054 70.2885 85.1207C70.6848 85.4361 71.1834 85.5938 71.7843 85.5938ZM86.3693 90.5604C85.0483 90.5604 83.8764 90.3793 82.8537 90.017C81.8352 89.6591 80.9766 89.1307 80.2777 88.4318C79.5788 87.7372 79.0483 86.8849 78.6861 85.875C78.3239 84.8651 78.1428 83.7124 78.1428 82.4169C78.1428 81.1555 78.326 80.022 78.6925 79.0163C79.0589 78.0107 79.5916 77.1541 80.2905 76.4467C80.9936 75.7351 81.848 75.1918 82.8537 74.8168C83.8594 74.4418 85.0014 74.2543 86.2798 74.2543C87.5028 74.2543 88.581 74.446 89.5142 74.8295C90.4474 75.2131 91.2315 75.7393 91.8665 76.4084C92.5057 77.0774 92.9872 77.8445 93.3111 78.7095C93.6349 79.5746 93.7969 80.4886 93.7969 81.4517C93.7969 82.125 93.7543 82.7834 93.669 83.4268C93.5838 84.0661 93.4261 84.6456 93.196 85.1655C92.9702 85.6811 92.642 86.0945 92.2116 86.4055C91.7855 86.7124 91.2315 86.8722 90.5497 86.8849C90.1875 86.8977 89.8359 86.8551 89.495 86.7571C89.1541 86.6591 88.8643 86.5014 88.6257 86.2841C88.3871 86.0625 88.2422 85.7812 88.1911 85.4403H88.1143C88.0121 85.6918 87.8416 85.9261 87.603 86.1435C87.3643 86.3565 87.0597 86.527 86.6889 86.6548C86.3224 86.7784 85.8963 86.8295 85.4105 86.8082C84.8736 86.7869 84.3899 86.6655 83.9595 86.4439C83.5291 86.2223 83.1605 85.9155 82.8537 85.5234C82.5511 85.1314 82.3189 84.6669 82.157 84.13C81.995 83.593 81.9141 82.9964 81.9141 82.3402C81.9141 81.7095 82.0057 81.1449 82.1889 80.6463C82.3722 80.1435 82.6214 79.7109 82.9368 79.3487C83.2564 78.9822 83.6229 78.6925 84.0362 78.4794C84.4496 78.2663 84.8864 78.1321 85.3466 78.0767C85.794 78.0256 86.2053 78.0384 86.5803 78.1151C86.9553 78.1918 87.2663 78.3089 87.5135 78.4666C87.7649 78.6243 87.9226 78.7969 87.9865 78.9844H88.0696V78.2685H89.642V84.2003C89.642 84.5369 89.7294 84.8224 89.9041 85.0568C90.0831 85.2912 90.3366 85.4084 90.6648 85.4084C91.0526 85.4084 91.3551 85.2656 91.5724 84.9801C91.794 84.6946 91.9496 84.2557 92.0391 83.6634C92.1328 83.071 92.1797 82.3125 92.1797 81.3878C92.1797 80.7401 92.0923 80.1307 91.9176 79.5597C91.7472 78.9844 91.4936 78.4645 91.157 78C90.8246 77.5312 90.4155 77.1286 89.9297 76.7919C89.4439 76.4553 88.8899 76.1953 88.2678 76.0121C87.6499 75.8288 86.9659 75.7372 86.2159 75.7372C85.1974 75.7372 84.2919 75.8949 83.4993 76.2102C82.7067 76.5213 82.0376 76.9709 81.4922 77.5589C80.951 78.147 80.5398 78.8523 80.2585 79.6747C79.9815 80.4929 79.843 81.4112 79.843 82.4297C79.843 83.4908 79.9858 84.4325 80.2713 85.255C80.5568 86.0732 80.9787 86.7635 81.5369 87.326C82.0952 87.8885 82.7855 88.3146 83.608 88.6044C84.4304 88.8984 85.3786 89.0455 86.4524 89.0455C86.9297 89.0455 87.3984 89.0028 87.8587 88.9176C88.3189 88.8366 88.728 88.7429 89.0859 88.6364C89.4482 88.5341 89.7188 88.451 89.8977 88.3871L90.3452 89.7869C90.081 89.9105 89.7294 90.032 89.2905 90.1513C88.8558 90.2706 88.3828 90.3686 87.8714 90.4453C87.3643 90.522 86.8636 90.5604 86.3693 90.5604ZM85.7812 85.2422C86.3352 85.2422 86.7805 85.1314 87.1172 84.9098C87.4581 84.6882 87.7031 84.358 87.8523 83.919C88.0057 83.4759 88.0824 82.9219 88.0824 82.2571C88.0781 81.6094 87.995 81.0937 87.8331 80.7102C87.6754 80.3224 87.4283 80.0455 87.0916 79.8793C86.7592 79.7088 86.331 79.6236 85.8068 79.6236C85.3253 79.6236 84.9141 79.7408 84.5732 79.9751C84.2365 80.2095 83.9787 80.527 83.7997 80.9276C83.625 81.3281 83.5355 81.7734 83.5312 82.2635C83.5355 82.7791 83.608 83.2649 83.7486 83.7209C83.8935 84.1726 84.1278 84.5391 84.4517 84.8203C84.7798 85.1016 85.223 85.2422 85.7812 85.2422ZM95.9078 77.1818H97.8191V87.6392C97.8191 88.2955 97.6998 88.8494 97.4611 89.3011C97.2267 89.7528 96.8773 90.0959 96.4128 90.3303C95.9526 90.5646 95.3837 90.6818 94.7061 90.6818C94.638 90.6818 94.574 90.6818 94.5144 90.6818C94.4505 90.6818 94.3844 90.6797 94.3162 90.6754V89.0327C94.3759 89.0327 94.4292 89.0327 94.476 89.0327C94.5186 89.0327 94.5676 89.0327 94.623 89.0327C95.0748 89.0327 95.4007 88.9112 95.601 88.6683C95.8056 88.4297 95.9078 88.0824 95.9078 87.6264V77.1818ZM96.8539 75.6669C96.5215 75.6669 96.236 75.5561 95.9973 75.3345C95.763 75.1087 95.6458 74.8402 95.6458 74.5291C95.6458 74.2138 95.763 73.9453 95.9973 73.7237C96.236 73.4979 96.5215 73.3849 96.8539 73.3849C97.1863 73.3849 97.4696 73.4979 97.704 73.7237C97.9426 73.9453 98.062 74.2138 98.062 74.5291C98.062 74.8402 97.9426 75.1087 97.704 75.3345C97.4696 75.5561 97.1863 75.6669 96.8539 75.6669ZM106.61 82.9283V77.1818H108.527V87H106.648V85.2997H106.546C106.32 85.8239 105.958 86.2607 105.459 86.6101C104.965 86.9553 104.349 87.1278 103.612 87.1278C102.981 87.1278 102.423 86.9893 101.937 86.7124C101.456 86.4311 101.076 86.0156 100.799 85.4659C100.527 84.9162 100.39 84.2365 100.39 83.4268V77.1818H102.301V83.1967C102.301 83.8658 102.487 84.3984 102.858 84.7947C103.228 85.1911 103.71 85.3892 104.302 85.3892C104.66 85.3892 105.016 85.2997 105.37 85.1207C105.728 84.9418 106.024 84.6712 106.258 84.3089C106.497 83.9467 106.614 83.4865 106.61 82.9283ZM113.007 81.1705V87H111.095V77.1818H112.93V78.7798H113.051C113.277 78.2599 113.631 77.8423 114.112 77.527C114.598 77.2116 115.21 77.054 115.947 77.054C116.616 77.054 117.202 77.1946 117.705 77.4759C118.208 77.7528 118.597 78.1662 118.874 78.7159C119.151 79.2656 119.29 79.9453 119.29 80.755V87H117.379V80.9851C117.379 80.2734 117.193 79.7173 116.823 79.3168C116.452 78.9119 115.943 78.7095 115.295 78.7095C114.852 78.7095 114.458 78.8054 114.112 78.9972C113.771 79.1889 113.501 79.4702 113.301 79.8409C113.105 80.2074 113.007 80.6506 113.007 81.1705ZM125.97 90.8864C125.19 90.8864 124.519 90.7841 123.956 90.5795C123.398 90.375 122.942 90.1044 122.588 89.7678C122.235 89.4311 121.97 89.0625 121.796 88.6619L123.438 87.9844C123.553 88.1719 123.707 88.37 123.899 88.5788C124.095 88.7919 124.359 88.973 124.691 89.1222C125.028 89.2713 125.46 89.3459 125.989 89.3459C126.713 89.3459 127.312 89.169 127.785 88.8153C128.258 88.4659 128.494 87.9077 128.494 87.1406V85.2102H128.373C128.258 85.419 128.092 85.6513 127.874 85.907C127.661 86.1626 127.367 86.3842 126.992 86.5717C126.617 86.7592 126.129 86.853 125.529 86.853C124.753 86.853 124.054 86.6719 123.432 86.3097C122.814 85.9432 122.324 85.4041 121.962 84.6925C121.604 83.9766 121.425 83.0966 121.425 82.0526C121.425 81.0085 121.602 80.1136 121.955 79.3679C122.313 78.6222 122.803 78.0511 123.426 77.6548C124.048 77.2543 124.753 77.054 125.541 77.054C126.151 77.054 126.643 77.1562 127.018 77.3608C127.393 77.5611 127.685 77.7955 127.894 78.0639C128.107 78.3324 128.271 78.5689 128.386 78.7734H128.526V77.1818H130.399V87.2173C130.399 88.0611 130.203 88.7536 129.811 89.2947C129.419 89.8359 128.889 90.2365 128.22 90.4964C127.555 90.7564 126.805 90.8864 125.97 90.8864ZM125.95 85.2678C126.5 85.2678 126.965 85.1399 127.344 84.8842C127.727 84.6243 128.017 84.2536 128.213 83.772C128.414 83.2862 128.514 82.7045 128.514 82.027C128.514 81.3665 128.416 80.7848 128.22 80.282C128.024 79.7791 127.736 79.3871 127.357 79.1058C126.977 78.8203 126.509 78.6776 125.95 78.6776C125.375 78.6776 124.896 78.8267 124.512 79.125C124.129 79.419 123.839 79.8196 123.643 80.3267C123.451 80.8338 123.355 81.4006 123.355 82.027C123.355 82.6705 123.453 83.2351 123.649 83.7209C123.845 84.2067 124.135 84.5859 124.519 84.8587C124.906 85.1314 125.384 85.2678 125.95 85.2678ZM134.874 73.9091V87H132.963V73.9091H134.874ZM141.676 87.1982C140.709 87.1982 139.876 86.9915 139.177 86.5781C138.483 86.1605 137.946 85.5746 137.566 84.8203C137.191 84.0618 137.004 83.1733 137.004 82.1548C137.004 81.1491 137.191 80.2628 137.566 79.4957C137.946 78.7287 138.474 78.13 139.152 77.6996C139.833 77.2692 140.63 77.054 141.542 77.054C142.096 77.054 142.633 77.1456 143.153 77.3288C143.673 77.5121 144.14 77.7997 144.553 78.1918C144.966 78.5838 145.292 79.093 145.531 79.7195C145.77 80.3416 145.889 81.098 145.889 81.9886V82.6662H138.084V81.2344H144.016C144.016 80.7315 143.914 80.2862 143.709 79.8984C143.505 79.5064 143.217 79.1974 142.846 78.9716C142.48 78.7457 142.049 78.6328 141.555 78.6328C141.018 78.6328 140.549 78.7649 140.149 79.0291C139.752 79.2891 139.446 79.63 139.228 80.0518C139.015 80.4695 138.909 80.9233 138.909 81.4134V82.532C138.909 83.1882 139.024 83.7464 139.254 84.2067C139.488 84.6669 139.814 85.0185 140.232 85.2614C140.65 85.5 141.137 85.6193 141.696 85.6193C142.058 85.6193 142.388 85.5682 142.686 85.4659C142.985 85.3594 143.243 85.2017 143.46 84.9929C143.677 84.7841 143.843 84.5263 143.958 84.2195L145.767 84.5455C145.623 85.0781 145.363 85.5447 144.988 85.9453C144.617 86.3416 144.15 86.6506 143.588 86.8722C143.029 87.0895 142.392 87.1982 141.676 87.1982ZM152.145 87.1982C151.195 87.1982 150.377 86.983 149.691 86.5526C149.009 86.1179 148.485 85.5192 148.118 84.7564C147.752 83.9936 147.568 83.12 147.568 82.1357C147.568 81.1385 147.756 80.2585 148.131 79.4957C148.506 78.7287 149.034 78.13 149.716 77.6996C150.398 77.2692 151.201 77.054 152.126 77.054C152.872 77.054 153.536 77.1925 154.12 77.4695C154.704 77.7422 155.175 78.1257 155.533 78.62C155.895 79.1143 156.11 79.6918 156.178 80.3523H154.318C154.216 79.892 153.982 79.4957 153.615 79.1634C153.253 78.831 152.767 78.6648 152.158 78.6648C151.625 78.6648 151.159 78.8054 150.758 79.0866C150.362 79.3636 150.053 79.7599 149.831 80.2756C149.61 80.7869 149.499 81.392 149.499 82.0909C149.499 82.8068 149.607 83.4247 149.825 83.9446C150.042 84.4645 150.349 84.8672 150.745 85.1527C151.146 85.4382 151.617 85.581 152.158 85.581C152.52 85.581 152.848 85.5149 153.142 85.3828C153.441 85.2464 153.69 85.0526 153.89 84.8011C154.095 84.5497 154.237 84.2472 154.318 83.8935H156.178C156.11 84.5284 155.904 85.0952 155.558 85.5938C155.213 86.0923 154.751 86.4844 154.171 86.7699C153.596 87.0554 152.921 87.1982 152.145 87.1982ZM161.08 87.2173C160.457 87.2173 159.895 87.1023 159.392 86.8722C158.889 86.6378 158.491 86.299 158.197 85.8558C157.907 85.4126 157.762 84.8693 157.762 84.2259C157.762 83.6719 157.869 83.2159 158.082 82.858C158.295 82.5 158.582 82.2166 158.945 82.0078C159.307 81.799 159.712 81.6413 160.159 81.5348C160.607 81.4283 161.063 81.3473 161.527 81.2919C162.115 81.2237 162.592 81.1683 162.959 81.1257C163.325 81.0788 163.592 81.0043 163.758 80.902C163.924 80.7997 164.007 80.6335 164.007 80.4034V80.3587C164.007 79.8004 163.849 79.3679 163.534 79.0611C163.223 78.7543 162.759 78.6009 162.141 78.6009C161.497 78.6009 160.99 78.7436 160.619 79.0291C160.253 79.3104 159.999 79.6236 159.859 79.9688L158.062 79.5597C158.276 78.9631 158.587 78.4815 158.996 78.1151C159.409 77.7443 159.884 77.4759 160.421 77.3097C160.958 77.1392 161.523 77.054 162.115 77.054C162.507 77.054 162.923 77.1009 163.362 77.1946C163.805 77.2841 164.218 77.4503 164.602 77.6932C164.989 77.9361 165.307 78.2834 165.554 78.7351C165.801 79.1825 165.925 79.7642 165.925 80.4801V87H164.058V85.6577H163.982C163.858 85.9048 163.673 86.1477 163.425 86.3864C163.178 86.625 162.861 86.8232 162.473 86.9808C162.085 87.1385 161.621 87.2173 161.08 87.2173ZM161.495 85.6832C162.023 85.6832 162.475 85.5788 162.85 85.37C163.229 85.1612 163.517 84.8885 163.713 84.5518C163.913 84.2109 164.013 83.8466 164.013 83.4588V82.1932C163.945 82.2614 163.813 82.3253 163.617 82.3849C163.425 82.4403 163.206 82.4893 162.959 82.532C162.712 82.5703 162.471 82.6065 162.237 82.6406C162.002 82.6705 161.806 82.696 161.648 82.7173C161.278 82.7642 160.939 82.843 160.632 82.9538C160.33 83.0646 160.087 83.2244 159.903 83.4332C159.724 83.6378 159.635 83.9105 159.635 84.2514C159.635 84.7244 159.81 85.0824 160.159 85.3253C160.509 85.5639 160.954 85.6832 161.495 85.6832ZM173.053 77.1818V78.7159H167.691V77.1818H173.053ZM169.129 74.8295H171.04V84.1172C171.04 84.4879 171.095 84.767 171.206 84.9545C171.317 85.1378 171.46 85.2635 171.634 85.3317C171.813 85.3956 172.007 85.4276 172.216 85.4276C172.369 85.4276 172.504 85.4169 172.619 85.3956C172.734 85.3743 172.823 85.3572 172.887 85.3445L173.232 86.9233C173.122 86.9659 172.964 87.0085 172.759 87.0511C172.555 87.098 172.299 87.1236 171.992 87.1278C171.49 87.1364 171.021 87.0469 170.586 86.8594C170.151 86.6719 169.8 86.3821 169.531 85.9901C169.263 85.598 169.129 85.1058 169.129 84.5135V74.8295ZM176.427 87.1214C176.077 87.1214 175.777 86.9979 175.526 86.7507C175.274 86.4993 175.148 86.1967 175.148 85.843C175.148 85.4936 175.274 85.1953 175.526 84.9482C175.777 84.6967 176.077 84.571 176.427 84.571C176.776 84.571 177.077 84.6967 177.328 84.9482C177.58 85.1953 177.705 85.4936 177.705 85.843C177.705 86.0774 177.646 86.2926 177.526 86.4886C177.411 86.6804 177.258 86.8338 177.066 86.9489C176.874 87.0639 176.661 87.1214 176.427 87.1214ZM184.401 87.1982C183.451 87.1982 182.632 86.983 181.946 86.5526C181.265 86.1179 180.74 85.5192 180.374 84.7564C180.007 83.9936 179.824 83.12 179.824 82.1357C179.824 81.1385 180.012 80.2585 180.387 79.4957C180.762 78.7287 181.29 78.13 181.972 77.6996C182.654 77.2692 183.457 77.054 184.382 77.054C185.127 77.054 185.792 77.1925 186.376 77.4695C186.96 77.7422 187.431 78.1257 187.789 78.62C188.151 79.1143 188.366 79.6918 188.434 80.3523H186.574C186.472 79.892 186.238 79.4957 185.871 79.1634C185.509 78.831 185.023 78.6648 184.414 78.6648C183.881 78.6648 183.414 78.8054 183.014 79.0866C182.618 79.3636 182.309 79.7599 182.087 80.2756C181.865 80.7869 181.755 81.392 181.755 82.0909C181.755 82.8068 181.863 83.4247 182.081 83.9446C182.298 84.4645 182.605 84.8672 183.001 85.1527C183.402 85.4382 183.873 85.581 184.414 85.581C184.776 85.581 185.104 85.5149 185.398 85.3828C185.696 85.2464 185.946 85.0526 186.146 84.8011C186.35 84.5497 186.493 84.2472 186.574 83.8935H188.434C188.366 84.5284 188.159 85.0952 187.814 85.5938C187.469 86.0923 187.007 86.4844 186.427 86.7699C185.852 87.0554 185.176 87.1982 184.401 87.1982ZM194.614 87.1982C193.693 87.1982 192.89 86.9872 192.204 86.5653C191.518 86.1435 190.985 85.5533 190.606 84.7947C190.227 84.0362 190.037 83.1499 190.037 82.1357C190.037 81.1172 190.227 80.2266 190.606 79.4638C190.985 78.701 191.518 78.1087 192.204 77.6868C192.89 77.2649 193.693 77.054 194.614 77.054C195.534 77.054 196.338 77.2649 197.024 77.6868C197.71 78.1087 198.242 78.701 198.622 79.4638C199.001 80.2266 199.191 81.1172 199.191 82.1357C199.191 83.1499 199.001 84.0362 198.622 84.7947C198.242 85.5533 197.71 86.1435 197.024 86.5653C196.338 86.9872 195.534 87.1982 194.614 87.1982ZM194.62 85.5938C195.217 85.5938 195.711 85.4361 196.103 85.1207C196.495 84.8054 196.785 84.3857 196.972 83.8615C197.164 83.3374 197.26 82.7599 197.26 82.1293C197.26 81.5028 197.164 80.9276 196.972 80.4034C196.785 79.875 196.495 79.451 196.103 79.1314C195.711 78.8118 195.217 78.652 194.62 78.652C194.019 78.652 193.521 78.8118 193.124 79.1314C192.732 79.451 192.441 79.875 192.249 80.4034C192.061 80.9276 191.968 81.5028 191.968 82.1293C191.968 82.7599 192.061 83.3374 192.249 83.8615C192.441 84.3857 192.732 84.8054 193.124 85.1207C193.521 85.4361 194.019 85.5938 194.62 85.5938ZM201.324 87V77.1818H203.158V78.7798H203.28C203.484 78.2386 203.819 77.8168 204.283 77.5142C204.748 77.2074 205.304 77.054 205.952 77.054C206.608 77.054 207.158 77.2074 207.601 77.5142C208.048 77.821 208.379 78.2429 208.592 78.7798H208.694C208.928 78.2557 209.301 77.8381 209.812 77.527C210.324 77.2116 210.933 77.054 211.641 77.054C212.531 77.054 213.258 77.3331 213.82 77.8913C214.387 78.4496 214.67 79.2912 214.67 80.4162V87H212.759V80.5952C212.759 79.9304 212.578 79.4489 212.216 79.1506C211.854 78.8523 211.421 78.7031 210.918 78.7031C210.296 78.7031 209.812 78.8949 209.467 79.2784C209.122 79.6577 208.95 80.1456 208.95 80.7422V87H207.045V80.4737C207.045 79.9411 206.879 79.5128 206.546 79.1889C206.214 78.8651 205.781 78.7031 205.249 78.7031C204.886 78.7031 204.552 78.799 204.245 78.9908C203.942 79.1783 203.697 79.4403 203.51 79.777C203.327 80.1136 203.235 80.5036 203.235 80.9467V87H201.324Z" fill="#FFFEFE"/>
<path d="M7.49805 77.749L10.4247 79.5534C11.3905 80.1488 12.6094 80.1488 13.5751 79.5534L16.5018 77.749" stroke="white" stroke-width="1.5" stroke-linecap="round" stroke-linejoin="round"/>
<rect x="2.99609" y="72.9971" width="18.0075" height="14.0058" rx="3" stroke="white" stroke-width="1.5" stroke-linecap="round" stroke-linejoin="round"/>
<path d="M42.5263 124.909H44.495V134.19C44.495 135.03 44.3288 135.748 43.9964 136.344C43.6683 136.941 43.206 137.397 42.6094 137.712C42.0128 138.023 41.3139 138.179 40.5128 138.179C39.7756 138.179 39.1129 138.045 38.5249 137.776C37.9411 137.508 37.4787 137.118 37.1378 136.607C36.8011 136.091 36.6328 135.464 36.6328 134.727H38.5952C38.5952 135.089 38.6783 135.403 38.8445 135.667C39.0149 135.931 39.2472 136.138 39.5412 136.287C39.8395 136.432 40.1804 136.504 40.5639 136.504C40.9815 136.504 41.3352 136.417 41.625 136.242C41.919 136.063 42.1428 135.801 42.2962 135.456C42.4496 135.111 42.5263 134.689 42.5263 134.19V124.909ZM53.4359 133.928V128.182H55.3535V138H53.4743V136.3H53.372C53.1461 136.824 52.7839 137.261 52.2853 137.61C51.791 137.955 51.1752 138.128 50.438 138.128C49.8074 138.128 49.2491 137.989 48.7633 137.712C48.2818 137.431 47.9025 137.016 47.6255 136.466C47.3528 135.916 47.2164 135.237 47.2164 134.427V128.182H49.1277V134.197C49.1277 134.866 49.313 135.398 49.6838 135.795C50.0545 136.191 50.536 136.389 51.1284 136.389C51.4863 136.389 51.8422 136.3 52.1958 136.121C52.5538 135.942 52.85 135.671 53.0843 135.309C53.323 134.947 53.4402 134.487 53.4359 133.928ZM59.8327 132.17V138H57.9215V128.182H59.756V129.78H59.8775C60.1033 129.26 60.457 128.842 60.9386 128.527C61.4244 128.212 62.0359 128.054 62.7731 128.054C63.4421 128.054 64.0281 128.195 64.5309 128.476C65.0337 128.753 65.4237 129.166 65.7006 129.716C65.9776 130.266 66.1161 130.945 66.1161 131.755V138H64.2049V131.985C64.2049 131.273 64.0195 130.717 63.6488 130.317C63.2781 129.912 62.7688 129.71 62.1211 129.71C61.6779 129.71 61.2837 129.805 60.9386 129.997C60.5977 130.189 60.3271 130.47 60.1268 130.841C59.9308 131.207 59.8327 131.651 59.8327 132.17ZM72.7958 141.886C72.016 141.886 71.3448 141.784 70.7823 141.58C70.2241 141.375 69.7681 141.104 69.4144 140.768C69.0607 140.431 68.7965 140.063 68.6218 139.662L70.2646 138.984C70.3796 139.172 70.533 139.37 70.7248 139.579C70.9208 139.792 71.185 139.973 71.5174 140.122C71.854 140.271 72.2866 140.346 72.815 140.346C73.5394 140.346 74.1381 140.169 74.6112 139.815C75.0842 139.466 75.3207 138.908 75.3207 138.141V136.21H75.1992C75.0842 136.419 74.918 136.651 74.7006 136.907C74.4876 137.163 74.1935 137.384 73.8185 137.572C73.4435 137.759 72.9556 137.853 72.3548 137.853C71.5792 137.853 70.8803 137.672 70.2582 137.31C69.6403 136.943 69.1502 136.404 68.788 135.692C68.43 134.977 68.2511 134.097 68.2511 133.053C68.2511 132.009 68.4279 131.114 68.7816 130.368C69.1396 129.622 69.6296 129.051 70.2518 128.655C70.8739 128.254 71.5792 128.054 72.3675 128.054C72.9769 128.054 73.4691 128.156 73.8441 128.361C74.2191 128.561 74.511 128.795 74.7198 129.064C74.9329 129.332 75.0969 129.569 75.212 129.773H75.3526V128.182H77.2255V138.217C77.2255 139.061 77.0295 139.754 76.6374 140.295C76.2454 140.836 75.7148 141.237 75.0458 141.496C74.381 141.756 73.631 141.886 72.7958 141.886ZM72.7766 136.268C73.3263 136.268 73.7908 136.14 74.1701 135.884C74.5536 135.624 74.8434 135.254 75.0394 134.772C75.2397 134.286 75.3398 133.705 75.3398 133.027C75.3398 132.366 75.2418 131.785 75.0458 131.282C74.8498 130.779 74.5621 130.387 74.1829 130.106C73.8036 129.82 73.3349 129.678 72.7766 129.678C72.2013 129.678 71.7219 129.827 71.3384 130.125C70.9549 130.419 70.6651 130.82 70.4691 131.327C70.2773 131.834 70.1815 132.401 70.1815 133.027C70.1815 133.67 70.2795 134.235 70.4755 134.721C70.6715 135.207 70.9613 135.586 71.3448 135.859C71.7326 136.131 72.2099 136.268 72.7766 136.268ZM81.6999 124.909V138H79.7887V124.909H81.6999ZM88.5027 138.198C87.5353 138.198 86.7022 137.991 86.0034 137.578C85.3088 137.161 84.7718 136.575 84.3926 135.82C84.0176 135.062 83.8301 134.173 83.8301 133.155C83.8301 132.149 84.0176 131.263 84.3926 130.496C84.7718 129.729 85.3002 129.13 85.9778 128.7C86.6596 128.269 87.4565 128.054 88.3684 128.054C88.9224 128.054 89.4593 128.146 89.9792 128.329C90.4991 128.512 90.9657 128.8 91.3791 129.192C91.7924 129.584 92.1184 130.093 92.3571 130.719C92.5957 131.342 92.715 132.098 92.715 132.989V133.666H84.9103V132.234H90.8422C90.8422 131.732 90.7399 131.286 90.5353 130.898C90.3308 130.506 90.0431 130.197 89.6724 129.972C89.3059 129.746 88.8755 129.633 88.3812 129.633C87.8443 129.633 87.3755 129.765 86.975 130.029C86.5787 130.289 86.2718 130.63 86.0545 131.052C85.8414 131.469 85.7349 131.923 85.7349 132.413V133.532C85.7349 134.188 85.85 134.746 86.0801 135.207C86.3145 135.667 86.6404 136.018 87.0581 136.261C87.4757 136.5 87.9636 136.619 88.5218 136.619C88.8841 136.619 89.2143 136.568 89.5126 136.466C89.8109 136.359 90.0687 136.202 90.286 135.993C90.5034 135.784 90.6696 135.526 90.7846 135.219L92.5936 135.545C92.4487 136.078 92.1887 136.545 91.8137 136.945C91.443 137.342 90.9764 137.651 90.4139 137.872C89.8556 138.089 89.2186 138.198 88.5027 138.198ZM101.848 138V139.624H93.5316V138H101.848ZM107.251 138.198C106.3 138.198 105.482 137.983 104.796 137.553C104.114 137.118 103.59 136.519 103.224 135.756C102.857 134.994 102.674 134.12 102.674 133.136C102.674 132.138 102.861 131.259 103.236 130.496C103.611 129.729 104.14 129.13 104.822 128.7C105.503 128.269 106.307 128.054 107.231 128.054C107.977 128.054 108.642 128.192 109.226 128.469C109.809 128.742 110.28 129.126 110.638 129.62C111.001 130.114 111.216 130.692 111.284 131.352H109.424C109.322 130.892 109.087 130.496 108.721 130.163C108.358 129.831 107.873 129.665 107.263 129.665C106.731 129.665 106.264 129.805 105.863 130.087C105.467 130.364 105.158 130.76 104.937 131.276C104.715 131.787 104.604 132.392 104.604 133.091C104.604 133.807 104.713 134.425 104.93 134.945C105.148 135.464 105.454 135.867 105.851 136.153C106.251 136.438 106.722 136.581 107.263 136.581C107.626 136.581 107.954 136.515 108.248 136.383C108.546 136.246 108.795 136.053 108.996 135.801C109.2 135.55 109.343 135.247 109.424 134.893H111.284C111.216 135.528 111.009 136.095 110.664 136.594C110.319 137.092 109.856 137.484 109.277 137.77C108.702 138.055 108.026 138.198 107.251 138.198ZM116.185 138.217C115.563 138.217 115 138.102 114.498 137.872C113.995 137.638 113.596 137.299 113.302 136.856C113.012 136.413 112.868 135.869 112.868 135.226C112.868 134.672 112.974 134.216 113.187 133.858C113.4 133.5 113.688 133.217 114.05 133.008C114.412 132.799 114.817 132.641 115.265 132.535C115.712 132.428 116.168 132.347 116.632 132.292C117.221 132.224 117.698 132.168 118.064 132.126C118.431 132.079 118.697 132.004 118.863 131.902C119.029 131.8 119.113 131.634 119.113 131.403V131.359C119.113 130.8 118.955 130.368 118.64 130.061C118.328 129.754 117.864 129.601 117.246 129.601C116.603 129.601 116.096 129.744 115.725 130.029C115.358 130.31 115.105 130.624 114.964 130.969L113.168 130.56C113.381 129.963 113.692 129.482 114.101 129.115C114.515 128.744 114.99 128.476 115.527 128.31C116.064 128.139 116.628 128.054 117.221 128.054C117.613 128.054 118.028 128.101 118.467 128.195C118.91 128.284 119.324 128.45 119.707 128.693C120.095 128.936 120.412 129.283 120.659 129.735C120.907 130.183 121.03 130.764 121.03 131.48V138H119.164V136.658H119.087C118.963 136.905 118.778 137.148 118.531 137.386C118.284 137.625 117.966 137.823 117.578 137.981C117.191 138.138 116.726 138.217 116.185 138.217ZM116.6 136.683C117.129 136.683 117.581 136.579 117.956 136.37C118.335 136.161 118.623 135.888 118.819 135.552C119.019 135.211 119.119 134.847 119.119 134.459V133.193C119.051 133.261 118.919 133.325 118.723 133.385C118.531 133.44 118.311 133.489 118.064 133.532C117.817 133.57 117.576 133.607 117.342 133.641C117.108 133.67 116.912 133.696 116.754 133.717C116.383 133.764 116.044 133.843 115.738 133.954C115.435 134.065 115.192 134.224 115.009 134.433C114.83 134.638 114.74 134.911 114.74 135.251C114.74 135.724 114.915 136.082 115.265 136.325C115.614 136.564 116.059 136.683 116.6 136.683ZM128.159 128.182V129.716H122.796V128.182H128.159ZM124.234 125.83H126.145V135.117C126.145 135.488 126.201 135.767 126.312 135.955C126.422 136.138 126.565 136.263 126.74 136.332C126.919 136.396 127.113 136.428 127.322 136.428C127.475 136.428 127.609 136.417 127.724 136.396C127.839 136.374 127.929 136.357 127.993 136.344L128.338 137.923C128.227 137.966 128.069 138.009 127.865 138.051C127.66 138.098 127.405 138.124 127.098 138.128C126.595 138.136 126.126 138.047 125.692 137.859C125.257 137.672 124.905 137.382 124.637 136.99C124.368 136.598 124.234 136.106 124.234 135.513V125.83Z" fill="#FFFEFE"/>
<path d="M44.2969 189V190.624H35.9808V189H44.2969ZM50.8056 175.909H52.7743V185.19C52.7743 186.03 52.6081 186.748 52.2757 187.344C51.9476 187.941 51.4853 188.397 50.8887 188.712C50.2921 189.023 49.5932 189.179 48.7921 189.179C48.0549 189.179 47.3922 189.045 46.8042 188.776C46.2203 188.508 45.758 188.118 45.4171 187.607C45.0804 187.091 44.9121 186.464 44.9121 185.727H46.8745C46.8745 186.089 46.9576 186.403 47.1238 186.667C47.2942 186.931 47.5265 187.138 47.8205 187.287C48.1188 187.432 48.4597 187.504 48.8432 187.504C49.2608 187.504 49.6145 187.417 49.9043 187.242C50.1983 187.063 50.4221 186.801 50.5755 186.456C50.7289 186.111 50.8056 185.689 50.8056 185.19V175.909ZM61.7152 184.928V179.182H63.6328V189H61.7536V187.3H61.6513C61.4254 187.824 61.0632 188.261 60.5646 188.61C60.0703 188.955 59.4545 189.128 58.7173 189.128C58.0866 189.128 57.5284 188.989 57.0426 188.712C56.5611 188.431 56.1818 188.016 55.9048 187.466C55.6321 186.916 55.4957 186.237 55.4957 185.427V179.182H57.407V185.197C57.407 185.866 57.5923 186.398 57.9631 186.795C58.3338 187.191 58.8153 187.389 59.4077 187.389C59.7656 187.389 60.1214 187.3 60.4751 187.121C60.8331 186.942 61.1293 186.671 61.3636 186.309C61.6023 185.947 61.7195 185.487 61.7152 184.928ZM68.112 183.17V189H66.2008V179.182H68.0353V180.78H68.1568C68.3826 180.26 68.7363 179.842 69.2179 179.527C69.7037 179.212 70.3152 179.054 71.0524 179.054C71.7214 179.054 72.3074 179.195 72.8102 179.476C73.313 179.753 73.7029 180.166 73.9799 180.716C74.2569 181.266 74.3954 181.945 74.3954 182.755V189H72.4842V182.985C72.4842 182.273 72.2988 181.717 71.9281 181.317C71.5574 180.912 71.0481 180.71 70.4004 180.71C69.9572 180.71 69.563 180.805 69.2179 180.997C68.877 181.189 68.6064 181.47 68.4061 181.841C68.21 182.207 68.112 182.651 68.112 183.17ZM81.0751 192.886C80.2953 192.886 79.6241 192.784 79.0616 192.58C78.5034 192.375 78.0474 192.104 77.6937 191.768C77.34 191.431 77.0758 191.063 76.9011 190.662L78.5439 189.984C78.6589 190.172 78.8123 190.37 79.0041 190.579C79.2001 190.792 79.4643 190.973 79.7967 191.122C80.1333 191.271 80.5659 191.346 81.0943 191.346C81.8187 191.346 82.4174 191.169 82.8904 190.815C83.3635 190.466 83.6 189.908 83.6 189.141V187.21H83.4785C83.3635 187.419 83.1973 187.651 82.9799 187.907C82.7669 188.163 82.4728 188.384 82.0978 188.572C81.7228 188.759 81.2349 188.853 80.6341 188.853C79.8585 188.853 79.1596 188.672 78.5375 188.31C77.9196 187.943 77.4295 187.404 77.0673 186.692C76.7093 185.977 76.5304 185.097 76.5304 184.053C76.5304 183.009 76.7072 182.114 77.0609 181.368C77.4189 180.622 77.9089 180.051 78.5311 179.655C79.1532 179.254 79.8585 179.054 80.6468 179.054C81.2562 179.054 81.7484 179.156 82.1234 179.361C82.4984 179.561 82.7903 179.795 82.9991 180.064C83.2122 180.332 83.3762 180.569 83.4913 180.773H83.6319V179.182H85.5048V189.217C85.5048 190.061 85.3088 190.754 84.9167 191.295C84.5247 191.836 83.9941 192.237 83.3251 192.496C82.6603 192.756 81.9103 192.886 81.0751 192.886ZM81.0559 187.268C81.6056 187.268 82.0701 187.14 82.4494 186.884C82.8329 186.624 83.1227 186.254 83.3187 185.772C83.519 185.286 83.6191 184.705 83.6191 184.027C83.6191 183.366 83.5211 182.785 83.3251 182.282C83.1291 181.779 82.8414 181.387 82.4622 181.106C82.0829 180.82 81.6142 180.678 81.0559 180.678C80.4806 180.678 80.0012 180.827 79.6177 181.125C79.2342 181.419 78.9444 181.82 78.7484 182.327C78.5566 182.834 78.4608 183.401 78.4608 184.027C78.4608 184.67 78.5588 185.235 78.7548 185.721C78.9508 186.207 79.2406 186.586 79.6241 186.859C80.0119 187.131 80.4892 187.268 81.0559 187.268ZM89.9792 175.909V189H88.068V175.909H89.9792ZM96.6861 189.198C95.7358 189.198 94.9176 188.983 94.2315 188.553C93.5497 188.118 93.0256 187.519 92.6591 186.756C92.2926 185.994 92.1094 185.12 92.1094 184.136C92.1094 183.138 92.2969 182.259 92.6719 181.496C93.0469 180.729 93.5753 180.13 94.2571 179.7C94.9389 179.269 95.7422 179.054 96.6669 179.054C97.4126 179.054 98.0774 179.192 98.6612 179.469C99.245 179.742 99.7159 180.126 100.074 180.62C100.436 181.114 100.651 181.692 100.719 182.352H98.8594C98.7571 181.892 98.5227 181.496 98.1562 181.163C97.794 180.831 97.3082 180.665 96.6989 180.665C96.1662 180.665 95.6996 180.805 95.299 181.087C94.9027 181.364 94.5938 181.76 94.3722 182.276C94.1506 182.787 94.0398 183.392 94.0398 184.091C94.0398 184.807 94.1484 185.425 94.3658 185.945C94.5831 186.464 94.8899 186.867 95.2862 187.153C95.6868 187.438 96.1577 187.581 96.6989 187.581C97.0611 187.581 97.3892 187.515 97.6832 187.383C97.9815 187.246 98.2308 187.053 98.4311 186.801C98.6357 186.55 98.7784 186.247 98.8594 185.893H100.719C100.651 186.528 100.445 187.095 100.099 187.594C99.7543 188.092 99.2919 188.484 98.7124 188.77C98.1371 189.055 97.4616 189.198 96.6861 189.198ZM105.621 189.217C104.998 189.217 104.436 189.102 103.933 188.872C103.43 188.638 103.032 188.299 102.738 187.856C102.448 187.413 102.303 186.869 102.303 186.226C102.303 185.672 102.41 185.216 102.623 184.858C102.836 184.5 103.123 184.217 103.486 184.008C103.848 183.799 104.253 183.641 104.7 183.535C105.148 183.428 105.604 183.347 106.068 183.292C106.656 183.224 107.133 183.168 107.5 183.126C107.866 183.079 108.133 183.004 108.299 182.902C108.465 182.8 108.548 182.634 108.548 182.403V182.359C108.548 181.8 108.39 181.368 108.075 181.061C107.764 180.754 107.3 180.601 106.682 180.601C106.038 180.601 105.531 180.744 105.16 181.029C104.794 181.31 104.54 181.624 104.4 181.969L102.604 181.56C102.817 180.963 103.128 180.482 103.537 180.115C103.95 179.744 104.425 179.476 104.962 179.31C105.499 179.139 106.064 179.054 106.656 179.054C107.048 179.054 107.464 179.101 107.903 179.195C108.346 179.284 108.759 179.45 109.143 179.693C109.53 179.936 109.848 180.283 110.095 180.735C110.342 181.183 110.466 181.764 110.466 182.48V189H108.599V187.658H108.523C108.399 187.905 108.214 188.148 107.966 188.386C107.719 188.625 107.402 188.823 107.014 188.981C106.626 189.138 106.162 189.217 105.621 189.217ZM106.036 187.683C106.564 187.683 107.016 187.579 107.391 187.37C107.77 187.161 108.058 186.888 108.254 186.552C108.454 186.211 108.555 185.847 108.555 185.459V184.193C108.486 184.261 108.354 184.325 108.158 184.385C107.966 184.44 107.747 184.489 107.5 184.532C107.253 184.57 107.012 184.607 106.778 184.641C106.543 184.67 106.347 184.696 106.189 184.717C105.819 184.764 105.48 184.843 105.173 184.954C104.871 185.065 104.628 185.224 104.444 185.433C104.265 185.638 104.176 185.911 104.176 186.251C104.176 186.724 104.351 187.082 104.7 187.325C105.05 187.564 105.495 187.683 106.036 187.683ZM117.594 179.182V180.716H112.232V179.182H117.594ZM113.67 176.83H115.581V186.117C115.581 186.488 115.636 186.767 115.747 186.955C115.858 187.138 116.001 187.263 116.175 187.332C116.354 187.396 116.548 187.428 116.757 187.428C116.911 187.428 117.045 187.417 117.16 187.396C117.275 187.374 117.364 187.357 117.428 187.344L117.773 188.923C117.663 188.966 117.505 189.009 117.3 189.051C117.096 189.098 116.84 189.124 116.533 189.128C116.031 189.136 115.562 189.047 115.127 188.859C114.692 188.672 114.341 188.382 114.072 187.99C113.804 187.598 113.67 187.106 113.67 186.513V176.83Z" fill="#FFFEFE"/>
<path d="M19.95 179.35C19.95 178.936 19.6142 178.6 19.2 178.6C18.7858 178.6 18.45 178.936 18.45 179.35H19.95ZM3.60565 186.108C3.36134 185.773 2.89213 185.7 2.55764 185.944C2.22314 186.189 2.15004 186.658 2.39435 186.992L3.60565 186.108ZM2.87257 185.811C2.46438 185.881 2.19053 186.269 2.2609 186.678C2.33128 187.086 2.71924 187.36 3.12743 187.289L2.87257 185.811ZM5.7 185.65L5.93829 186.361C6.18386 186.279 6.36961 186.076 6.4296 185.824C6.4896 185.572 6.41535 185.307 6.23322 185.123L5.7 185.65ZM4.8 174.85L5.46058 174.495C5.33797 174.267 5.10639 174.118 4.84798 174.102C4.58958 174.085 4.34091 174.203 4.19018 174.413L4.8 174.85ZM10.2 179.35L10.0229 180.079C10.2422 180.132 10.4739 180.084 10.6537 179.947C10.8334 179.811 10.9421 179.601 10.9496 179.375L10.2 179.35ZM18.3 176.65L17.6738 177.063C17.8126 177.273 18.0479 177.4 18.3 177.4V176.65ZM21 176.65L21.624 177.066C21.7775 176.836 21.7918 176.54 21.6613 176.296C21.5307 176.052 21.2766 175.9 21 175.9V176.65ZM18.576 178.934C18.3462 179.279 18.4393 179.744 18.784 179.974C19.1286 180.204 19.5943 180.111 19.824 179.766L18.576 178.934ZM18.45 179.35C18.45 182.362 17.5901 184.871 16.0501 186.616C14.5204 188.35 12.2593 189.4 9.3 189.4V190.9C12.6407 190.9 15.3296 189.7 17.1749 187.609C19.0099 185.529 19.95 182.638 19.95 179.35H18.45ZM9.3 189.4C7.64458 189.4 6.5374 188.973 5.70459 188.383C4.84887 187.778 4.23772 186.973 3.60565 186.108L2.39435 186.992C3.01928 187.848 3.75813 188.843 4.83816 189.608C5.9411 190.388 7.35542 190.9 9.3 190.9V189.4ZM3.12743 187.289C3.15119 187.285 3.16958 187.281 3.17593 187.279C3.18458 187.277 3.19158 187.275 3.19578 187.274C3.20418 187.272 3.21102 187.27 3.21457 187.269C3.22212 187.267 3.229 187.264 3.23345 187.263C3.24301 187.26 3.25419 187.257 3.26552 187.253C3.28875 187.245 3.32054 187.235 3.35881 187.222C3.43573 187.197 3.54331 187.161 3.67073 187.119C3.92579 187.034 4.26283 186.922 4.5986 186.81C4.93446 186.697 5.26937 186.585 5.5203 186.501C5.64577 186.459 5.75026 186.424 5.82338 186.4C5.85994 186.387 5.88866 186.378 5.90825 186.371C5.91804 186.368 5.92555 186.366 5.93061 186.364C5.93314 186.363 5.93506 186.362 5.93634 186.362C5.93699 186.362 5.93747 186.362 5.9378 186.361C5.93796 186.361 5.93808 186.361 5.93816 186.361C5.93821 186.361 5.93824 186.361 5.93826 186.361C5.93828 186.361 5.93829 186.361 5.7 185.65C5.46171 184.939 5.4617 184.939 5.46168 184.939C5.46166 184.939 5.46163 184.939 5.46159 184.939C5.46151 184.939 5.46139 184.939 5.46123 184.939C5.46091 184.939 5.46042 184.939 5.45978 184.94C5.4585 184.94 5.45659 184.941 5.45407 184.942C5.44902 184.943 5.44152 184.946 5.43175 184.949C5.41219 184.956 5.3835 184.965 5.34697 184.977C5.2739 185.002 5.16949 185.037 5.0441 185.079C4.79331 185.163 4.45867 185.275 4.12315 185.387C3.78755 185.499 3.4514 185.611 3.19749 185.696C3.07042 185.738 2.96458 185.773 2.88987 185.798C2.85233 185.81 2.82377 185.819 2.80469 185.825C2.79486 185.829 2.78939 185.83 2.78715 185.831C2.78569 185.831 2.78787 185.831 2.79198 185.83C2.79381 185.829 2.79923 185.827 2.80654 185.826C2.8102 185.825 2.81673 185.823 2.82499 185.821C2.83095 185.819 2.84904 185.815 2.87257 185.811L3.12743 187.289ZM6.23322 185.123C3.48941 182.349 3.28417 178.256 5.40982 175.287L4.19018 174.413C1.64783 177.965 1.89859 182.873 5.16678 186.178L6.23322 185.123ZM4.13942 175.205C5.31949 177.4 7.53919 179.475 10.0229 180.079L10.3771 178.621C8.40881 178.143 6.49451 176.418 5.46058 174.495L4.13942 175.205ZM10.9496 179.375C10.9872 178.239 11.388 177.3 12.0242 176.65C12.6563 176.004 13.5621 175.6 14.7 175.6V174.1C13.1869 174.1 11.8857 174.647 10.9521 175.601C10.0225 176.55 9.49883 177.861 9.45041 179.325L10.9496 179.375ZM14.7 175.6C15.5057 175.6 16.0959 175.753 16.5489 175.995C17.0003 176.236 17.3617 176.589 17.6738 177.063L18.9262 176.237C18.5053 175.599 17.9692 175.053 17.2551 174.671C16.5426 174.291 15.6993 174.1 14.7 174.1V175.6ZM18.3 177.4H21V175.9H18.3V177.4ZM20.376 176.234L18.576 178.934L19.824 179.766L21.624 177.066L20.376 176.234Z" fill="white"/>
<path d="M11.228 31.364C8.27867 31.364 5.83333 30.3933 3.892 28.452C1.95067 26.492 0.98 24.0747 0.98 21.2C0.98 18.3253 1.95067 15.9173 3.892 13.976C5.83333 12.016 8.27867 11.036 11.228 11.036C13.0013 11.036 14.6347 11.456 16.128 12.296C17.64 13.136 18.816 14.2747 19.656 15.712L16.856 17.336C16.3333 16.3653 15.568 15.6 14.56 15.04C13.5707 14.4613 12.46 14.172 11.228 14.172C9.13733 14.172 7.43867 14.8347 6.132 16.16C4.844 17.4853 4.2 19.1653 4.2 21.2C4.2 23.2347 4.844 24.9147 6.132 26.24C7.43867 27.5653 9.13733 28.228 11.228 28.228C12.46 28.228 13.58 27.948 14.588 27.388C15.596 26.8093 16.352 26.0347 16.856 25.064L19.656 26.66C18.8347 28.0973 17.668 29.2453 16.156 30.104C14.6627 30.944 13.02 31.364 11.228 31.364ZM28.7158 31.364C26.6624 31.364 24.9171 30.6547 23.4798 29.236C22.0424 27.8173 21.3238 26.072 21.3238 24C21.3238 21.928 22.0424 20.1827 23.4798 18.764C24.9171 17.3453 26.6624 16.636 28.7158 16.636C30.7878 16.636 32.5331 17.3453 33.9518 18.764C35.3891 20.1827 36.1078 21.928 36.1078 24C36.1078 26.072 35.3891 27.8173 33.9518 29.236C32.5331 30.6547 30.7878 31.364 28.7158 31.364ZM25.6078 27.164C26.4478 28.004 27.4838 28.424 28.7158 28.424C29.9478 28.424 30.9838 28.004 31.8238 27.164C32.6638 26.324 33.0838 25.2693 33.0838 24C33.0838 22.7307 32.6638 21.676 31.8238 20.836C30.9838 19.996 29.9478 19.576 28.7158 19.576C27.4838 19.576 26.4478 19.996 25.6078 20.836C24.7678 21.676 24.3478 22.7307 24.3478 24C24.3478 25.2693 24.7678 26.324 25.6078 27.164ZM46.2061 16.636C47.8115 16.636 49.1088 17.1493 50.0981 18.176C51.0875 19.2027 51.5821 20.612 51.5821 22.404V31H48.5581V22.712C48.5581 21.6667 48.2781 20.864 47.7181 20.304C47.1581 19.744 46.3928 19.464 45.4221 19.464C44.3581 19.464 43.4995 19.8 42.8461 20.472C42.1928 21.1253 41.8661 22.1333 41.8661 23.496V31H38.8421V17H41.8661V18.792C42.7808 17.3547 44.2275 16.636 46.2061 16.636ZM62.6502 19.912H59.1782V26.632C59.1782 27.2107 59.3089 27.6307 59.5702 27.892C59.8316 28.1347 60.2142 28.2747 60.7182 28.312C61.2409 28.3307 61.8849 28.3213 62.6502 28.284V31C60.3356 31.28 58.6742 31.084 57.6662 30.412C56.6582 29.7213 56.1542 28.4613 56.1542 26.632V19.912H53.5782V17H56.1542V13.976L59.1782 13.08V17H62.6502V19.912ZM75.9067 17H78.9307V31H75.9067V28.984C74.768 30.5707 73.1347 31.364 71.0067 31.364C69.084 31.364 67.4414 30.6547 66.0787 29.236C64.716 27.7987 64.0347 26.0533 64.0347 24C64.0347 21.928 64.716 20.1827 66.0787 18.764C67.4414 17.3453 69.084 16.636 71.0067 16.636C73.1347 16.636 74.768 17.42 75.9067 18.988V17ZM68.3187 27.22C69.1587 28.06 70.2134 28.48 71.4827 28.48C72.752 28.48 73.8067 28.06 74.6467 27.22C75.4867 26.3613 75.9067 25.288 75.9067 24C75.9067 22.712 75.4867 21.648 74.6467 20.808C73.8067 19.9493 72.752 19.52 71.4827 19.52C70.2134 19.52 69.1587 19.9493 68.3187 20.808C67.4787 21.648 67.0587 22.712 67.0587 24C67.0587 25.288 67.4787 26.3613 68.3187 27.22ZM89.0634 31.364C86.9541 31.364 85.1901 30.6547 83.7714 29.236C82.3714 27.8173 81.6714 26.072 81.6714 24C81.6714 21.9093 82.3714 20.164 83.7714 18.764C85.1901 17.3453 86.9541 16.636 89.0634 16.636C90.4261 16.636 91.6674 16.9627 92.7874 17.616C93.9074 18.2693 94.7474 19.1467 95.3074 20.248L92.7034 21.76C92.3861 21.088 91.9007 20.5653 91.2474 20.192C90.6127 19.8 89.8754 19.604 89.0354 19.604C87.8034 19.604 86.7674 20.024 85.9274 20.864C85.1061 21.704 84.6954 22.7493 84.6954 24C84.6954 25.2507 85.1061 26.296 85.9274 27.136C86.7674 27.976 87.8034 28.396 89.0354 28.396C89.8567 28.396 90.5941 28.2 91.2474 27.808C91.9194 27.416 92.4234 26.8933 92.7594 26.24L95.3634 27.724C94.7661 28.844 93.9074 29.7307 92.7874 30.384C91.6674 31.0373 90.4261 31.364 89.0634 31.364ZM105.361 19.912H101.889V26.632C101.889 27.2107 102.02 27.6307 102.281 27.892C102.542 28.1347 102.925 28.2747 103.429 28.312C103.952 28.3307 104.596 28.3213 105.361 28.284V31C103.046 31.28 101.385 31.084 100.377 30.412C99.3692 29.7213 98.8652 28.4613 98.8652 26.632V19.912H96.2892V17H98.8652V13.976L101.889 13.08V17H105.361V19.912Z" fill="#FFFEFE"/>
<path fill-rule="evenodd" clip-rule="evenodd" d="M7.496 122H16.505C18.987 122 21 124.012 21 126.496V135.505C21 137.987 18.988 140 16.504 140H7.496C5.013 140 3 137.988 3 135.504V126.496C3 124.013 5.012 122 7.496 122V122Z" stroke="white" stroke-width="1.5" stroke-linecap="round" stroke-linejoin="round"/>
<path d="M16.9487 125.713C16.7627 125.714 16.6117 125.865 16.6117 126.051C16.6117 126.237 16.7637 126.388 16.9497 126.388C17.1357 126.388 17.2867 126.237 17.2867 126.051C17.2877 125.864 17.1357 125.713 16.9487 125.713" stroke="white" stroke-width="1.5" stroke-linecap="round" stroke-linejoin="round"/>
<path d="M14.546 128.454C15.9519 129.86 15.9519 132.14 14.546 133.545C13.1401 134.951 10.8607 134.951 9.45481 133.545C8.04892 132.14 8.04892 129.86 9.45481 128.454C10.8607 127.048 13.1401 127.048 14.546 128.454" stroke="white" stroke-width="1.5" stroke-linecap="round" stroke-linejoin="round"/>
</svg>
