<svg width="191" height="42" viewBox="0 0 191 42" fill="none" xmlns="http://www.w3.org/2000/svg">
<path d="M12.7063 15.1327C12.0765 15.3038 11.519 15.6741 11.1171 16.1882C10.7151 16.7024 10.4903 17.3327 10.4762 17.9852C10.4721 18.1743 10.5432 18.3574 10.674 18.494C10.8049 18.6307 10.9846 18.7098 11.1737 18.7139C11.3629 18.718 11.5459 18.6468 11.6826 18.516C11.8192 18.3852 11.8983 18.2055 11.9024 18.0163C11.912 17.6745 12.032 17.3449 12.2443 17.0769C12.4567 16.8088 12.7501 16.6167 13.0807 16.5291C13.4113 16.4416 13.7613 16.4634 14.0785 16.5912C14.3957 16.719 14.663 16.9461 14.8405 17.2384C14.9202 17.3705 15.0407 17.4731 15.1839 17.5306C15.3271 17.5881 15.4851 17.5975 15.634 17.5573C15.6992 17.539 15.7619 17.5129 15.8207 17.4795C15.9819 17.3808 16.0974 17.2222 16.1421 17.0386C16.1868 16.855 16.157 16.6611 16.0593 16.4993C15.7224 15.9405 15.214 15.5055 14.6097 15.2592C14.0055 15.013 13.3378 14.9686 12.7063 15.1327Z" fill="white"/>
<path d="M19.069 16.5825C19.2577 16.5859 19.44 16.5145 19.5761 16.3837C19.7122 16.253 19.791 16.0736 19.795 15.8849C19.8056 15.5433 19.9263 15.2142 20.1389 14.9466C20.3516 14.6791 20.645 14.4873 20.9754 14.3999C21.3058 14.3125 21.6557 14.3341 21.9728 14.4615C22.29 14.5889 22.5576 14.8153 22.7357 15.1069C22.8151 15.2394 22.9356 15.3422 23.0789 15.3998C23.2221 15.4574 23.3803 15.4665 23.5292 15.4259C23.5941 15.4092 23.6561 15.383 23.7133 15.3481C23.8749 15.2498 23.991 15.0914 24.0362 14.9078C24.0813 14.7241 24.052 14.53 23.9545 14.3679C23.6167 13.8117 23.1079 13.3799 22.5042 13.1372C21.9004 12.8945 21.2343 12.8539 20.6056 13.0215C19.9768 13.1892 19.4193 13.556 19.0166 14.067C18.6138 14.5781 18.3874 15.2059 18.3714 15.8564C18.3693 15.9499 18.3858 16.0429 18.4197 16.1301C18.4537 16.2172 18.5045 16.2968 18.5694 16.3643C18.6342 16.4318 18.7117 16.4858 18.7974 16.5232C18.8831 16.5606 18.9754 16.5808 19.069 16.5825Z" fill="white"/>
<path d="M40.3539 22.3122L32.2995 20.7563C31.7108 18.2616 29.9086 16.4308 28.9569 15.7021C29.0384 14.6871 28.9631 13.6655 28.7338 12.6733V12.6396C28.4876 11.7191 28.0964 10.8438 27.5747 10.0464C28.2543 8.53598 28.6123 6.90074 28.6262 5.24452C28.64 3.58831 28.3093 1.94731 27.6551 0.425724C27.584 0.263143 27.4546 0.133066 27.2924 0.0610814C27.1301 -0.0109032 26.9469 -0.0195839 26.7786 0.0367471C23.9777 0.967429 21.6245 2.90916 20.1789 5.48242C18.2605 5.18228 16.3003 5.28897 14.4257 5.79559C12.5512 6.30221 10.8041 7.19742 9.29797 8.42309C6.75875 6.91928 3.75005 6.41629 0.859767 7.0124C0.685375 7.04764 0.530645 7.14725 0.426371 7.2914C0.322098 7.43556 0.275926 7.6137 0.297047 7.79035C0.490283 9.43731 1.02478 11.0259 1.86643 12.4547C2.70808 13.8835 3.83838 15.1211 5.18519 16.0885C5.13586 17.0308 5.23474 17.975 5.47822 18.8866C6.22246 21.5835 8.13104 23.7799 10.8902 25.0609C10.9229 25.0786 10.9567 25.0942 10.9913 25.1076C13.7404 26.3042 16.8167 26.5221 19.707 25.7248C19.7317 25.7221 19.756 25.7169 19.7796 25.7092C19.9369 25.6545 20.1039 25.6329 20.2699 25.6457C20.436 25.6584 20.5977 25.7053 20.7448 25.7834C20.8919 25.8614 21.0214 25.969 21.1251 26.0994C21.2287 26.2298 21.3044 26.3801 21.3473 26.5411C21.3902 26.702 21.3995 26.8701 21.3745 27.0348C21.3495 27.1995 21.2908 27.3572 21.2021 27.4982C21.1134 27.6392 20.9965 27.7603 20.8588 27.8541C20.7212 27.9478 20.5656 28.0122 20.402 28.0431L20.3345 28.0638C16.3748 29.5679 10.5634 29.3604 7.10933 27.6152C6.98446 27.5528 6.84388 27.5289 6.7054 27.5464C6.56691 27.564 6.43674 27.6222 6.33137 27.7138L0.239997 33.0583C0.144363 33.1428 0.0732609 33.2515 0.0341619 33.373C-0.00493708 33.4945 -0.0105891 33.6243 0.0177998 33.7487C0.0461886 33.8732 0.10757 33.9877 0.195494 34.0802C0.283418 34.1727 0.394638 34.2398 0.517467 34.2745L12.9051 37.7027L14.0824 40.8767C14.3936 41.7117 14.5492 42.1318 15.1715 41.9633C15.2663 41.9392 15.3547 41.895 15.4308 41.8336C17.4613 40.2155 20.2049 38.8878 23.1585 38.0968C26.1121 37.3059 29.0424 37.0933 31.6071 37.4511C31.793 37.4771 31.9817 37.4284 32.1318 37.3156C32.282 37.2029 32.3814 37.0353 32.4084 36.8495C32.4201 36.7765 32.4201 36.7021 32.4084 36.6291L31.7186 32.6589L40.7299 23.4946C40.8628 23.3615 40.9374 23.181 40.9374 22.9929C40.9374 22.8047 40.8628 22.6243 40.7299 22.4911C40.6306 22.393 40.5041 22.327 40.3669 22.3018L40.3539 22.3122ZM6.8526 18.508C6.61498 17.6238 6.54029 16.7038 6.63218 15.7929C6.64352 15.6617 6.61855 15.5299 6.56001 15.4119C6.50147 15.2939 6.41161 15.1942 6.30026 15.1239C4.1794 13.6999 2.64713 11.5549 1.9878 9.08694C1.91519 8.82763 1.85295 8.54238 1.80368 8.27009C4.31392 7.91959 6.86598 8.49377 8.9842 9.88564C9.12377 9.97598 9.29068 10.0143 9.45568 9.99393C9.62068 9.97354 9.77324 9.89573 9.88662 9.77414C11.3088 8.54088 12.9932 7.64774 14.812 7.16248C16.6308 6.67723 18.5363 6.6126 20.3838 6.9735C20.5042 7.00727 20.6316 7.00727 20.752 6.9735C20.8441 6.94636 20.9296 6.90058 21.0032 6.83902C21.0768 6.77746 21.1369 6.70143 21.1799 6.61564C22.3178 4.35059 24.2403 2.57644 26.5893 1.62377C26.6826 1.88309 26.7656 2.14241 26.8486 2.42247C27.5099 4.87969 27.2584 7.49329 26.1407 9.77932C26.0748 9.89653 26.044 10.0302 26.0518 10.1644C26.0596 10.2986 26.1057 10.4278 26.1848 10.5365C26.728 11.2841 27.1289 12.1254 27.3672 13.0182V13.0545C27.7069 14.3252 27.5125 15.9511 27.5125 15.9666C27.4949 16.1046 27.5185 16.2447 27.5803 16.3693C27.6422 16.4938 27.7395 16.5974 27.8599 16.6668C27.917 16.7005 33.1189 20.3828 30.1705 25.5355C29.1421 27.2505 27.945 28.8584 26.5971 30.3355C26.3501 30.5368 26.0391 30.6427 25.7206 30.6337C25.3581 30.6629 24.9983 30.5504 24.717 30.3199C24.4829 30.0954 24.3458 29.7883 24.3352 29.4641C24.3245 29.1399 24.4411 28.8244 24.66 28.5851C24.6811 28.5656 24.7011 28.5448 24.7196 28.5228C25.9209 27.0194 26.7698 25.2657 27.2039 23.3909C27.4099 22.5024 27.255 21.5685 26.7732 20.794C26.2914 20.0196 25.5221 19.4679 24.634 19.26L24.4862 19.2289L18.0318 18.0412C17.9277 18.0218 17.8206 18.026 17.7183 18.0534C17.616 18.0807 17.5211 18.1306 17.4406 18.1994L11.1495 23.6088C8.96345 22.4911 7.44903 20.694 6.86557 18.5157L6.8526 18.508Z" fill="white"/>
<path d="M110.88 21.3907C112.452 19.6792 113.733 19.2669 115.463 20.0215C115.81 20.1745 116.303 20.6439 116.269 20.9032C116.168 21.6604 115.844 22.3891 115.569 23.1152C115.546 23.1697 115.214 23.1515 115.05 23.0997C114.171 22.8403 113.914 23.2267 113.92 24.0539C113.943 26.8572 113.847 29.6656 113.943 32.4662C114.143 38.3735 109.628 40.225 105.302 39.8464C103.31 39.7209 101.432 38.8704 100.023 37.4555C99.2448 36.6775 99.3096 36.2549 100.282 35.2098C100.923 34.5122 101.475 34.6912 102.064 35.2694C103.586 36.7916 105.471 37.191 107.509 36.9057C109.828 36.5816 111.059 34.4707 110.429 31.8076C108.171 33.2675 105.79 33.6591 103.29 32.6062C101.982 32.0636 100.896 31.0937 100.209 29.8549C98.7158 27.2202 99.1722 23.735 101.288 21.6397C103.743 19.2021 106.94 19.1191 110.88 21.3907ZM110.818 26.4604C110.824 25.94 110.725 25.4237 110.529 24.9419C110.332 24.46 110.041 24.0223 109.673 23.6544C109.305 23.2866 108.867 22.9959 108.385 22.7996C107.903 22.6032 107.387 22.5051 106.866 22.511C106.345 22.5049 105.829 22.605 105.348 22.8053C104.867 23.0055 104.433 23.3017 104.07 23.6757C103.708 24.0498 103.426 24.4937 103.241 24.9806C103.056 25.4674 102.972 25.9868 102.995 26.5071C103.031 28.7502 104.649 30.3709 106.884 30.3969C107.404 30.406 107.92 30.3104 108.401 30.1158C108.883 29.9212 109.32 29.6315 109.687 29.2641C110.054 28.8967 110.344 28.4591 110.538 27.9774C110.732 27.4957 110.828 26.9797 110.818 26.4604Z" fill="white"/>
<path d="M143.066 25.1408C143.214 20.8802 145.026 17.7892 148.841 16.1788C152.731 14.5373 156.439 15.0456 159.704 17.8696C160.539 18.5931 160.609 19.1221 160.062 19.7211C158.851 21.0488 158.327 21.1836 157.378 20.4161C154.292 17.9188 150.483 18.1626 148.219 21.0151C146.217 23.5279 146.468 27.4177 148.776 29.6608C151.009 31.8338 154.637 31.9064 157.139 29.8293C157.38 29.6124 157.67 29.459 157.985 29.383C158.3 29.3071 158.629 29.3111 158.941 29.3946C159.254 29.478 159.541 29.6384 159.776 29.8611C160.011 30.0837 160.187 30.3616 160.287 30.6695C160.404 31.0066 160.186 31.6238 159.911 31.909C157.801 34.0821 155.15 34.8938 152.186 34.72C150.066 34.6187 148.041 33.8131 146.43 32.4308C144.819 31.0485 143.716 29.1684 143.294 27.0883C143.184 26.4436 143.108 25.7935 143.066 25.1408Z" fill="white"/>
<path d="M174.155 21.4329C174.207 20.5124 174.456 19.8407 175.594 19.877C177.15 19.9315 177.337 20.056 177.337 21.6404C177.337 25.302 177.337 28.9635 177.337 32.6251C177.337 33.9424 177.114 34.2795 176.222 34.3392C174.632 34.4455 174.406 34.2744 174.116 32.6744C172.56 34.1473 170.745 34.9123 168.67 34.7048C166.596 34.4974 164.9 33.6053 163.66 31.9094C161.573 29.0569 161.708 24.8015 163.959 22.1331C165.255 20.6109 166.92 19.8667 168.867 19.7137C170.371 19.6022 170.849 19.7889 174.155 21.4329ZM165.857 27.2157C165.826 29.6663 167.537 31.5023 169.866 31.5204C172.194 31.5386 173.883 29.7311 173.896 27.2339C173.909 24.7366 172.262 22.9085 169.936 22.8799C167.61 22.8514 165.89 24.6459 165.857 27.2157Z" fill="white"/>
<path d="M129.938 28.0163C129.8 30.3994 132.388 32.3806 135.077 31.8412C136.115 31.6338 137.059 31.0425 138.015 30.5602C138.767 30.179 139.185 30.3242 139.971 31.3382C140.425 31.9164 140.17 32.321 139.74 32.7385C137.25 35.1579 132.126 35.4043 129.149 33.2571C126.284 31.1826 125.353 27.0672 126.989 23.7064C128.473 20.6621 131.929 19.1373 135.568 19.9282C138.635 20.5946 140.767 23.2552 140.891 26.5693C140.935 27.757 140.671 28.0371 139.47 28.0396L129.938 28.0163ZM137.225 25.7473C137.046 23.4912 135.308 22.2128 132.943 22.4695C131.237 22.6562 129.831 24.2329 130.044 25.7473H137.225Z" fill="white"/>
<path d="M73.9686 32.504C72.838 34.0884 71.3158 34.7756 69.4384 34.7289C66.3084 34.6485 64.016 32.3951 63.9616 29.2625C63.9149 26.5552 63.9616 23.8453 63.946 21.1381C63.946 20.2382 64.3428 19.8959 65.2218 19.8881C67.5557 19.8726 67.5557 19.8518 67.5557 22.165C67.5557 24.1721 67.5401 26.1818 67.5557 28.1863C67.5739 29.5322 67.9395 30.7354 69.3139 31.2981C71.3366 32.1487 73.4059 30.8236 73.4837 28.5649C73.5641 26.2311 73.5122 23.9154 73.5174 21.5893C73.5174 20.0334 73.6601 19.8881 75.1952 19.8855H75.6749C76.9586 19.8855 77.1479 20.0774 77.1505 21.4C77.1505 24.2369 77.1505 27.0713 77.1505 29.9082C77.1505 30.2272 77.1634 30.5461 77.1686 30.8625C77.1816 31.4537 77.4954 31.6819 78.0425 31.5134C79.1706 31.1607 79.0798 32.1202 79.3391 32.6959C79.6166 33.3312 79.684 33.8965 78.8931 34.2881C77.0001 35.2294 75.1874 34.6926 74.2254 32.8566C74.1468 32.7341 74.0611 32.6163 73.9686 32.504Z" fill="white"/>
<path d="M85.8566 21.6641C87.0598 21.0495 88.1905 20.2119 89.4378 19.8826C90.2421 19.6646 91.0854 19.6314 91.9043 19.7857C92.7233 19.9399 93.4967 20.2776 94.1666 20.7733C94.8365 21.269 95.3854 21.91 95.7723 22.6481C96.1592 23.3862 96.3739 24.2023 96.4005 25.0353C96.5172 27.7711 96.4316 30.5147 96.4342 33.2582C96.4342 33.9532 96.0919 34.337 95.3969 34.3396C92.9567 34.3396 92.7882 34.5989 92.8349 32.0057C92.8712 30.0608 92.8867 28.116 92.8349 26.1711C92.7571 23.6609 90.7914 22.2813 88.538 23.08C87.2414 23.5468 86.5645 24.5918 86.536 26.337C86.4997 28.4116 86.536 30.4861 86.4971 32.5607C86.4971 33.1701 86.7383 34.0388 85.9422 34.2125C85.081 34.3509 84.2015 34.3272 83.349 34.1425C83.1441 34.1062 82.9341 33.406 82.9289 33.0093C82.8926 30.1075 82.9108 27.2083 82.9082 24.3066C82.9082 23.01 82.9082 23.01 81.6608 23.15C81.539 23.1656 81.3237 23.2019 81.3082 23.1656C81.0255 22.481 80.6702 21.8016 80.5458 21.091C80.4965 20.8032 80.8907 20.2794 81.2122 20.1134C83.0793 19.1228 84.7156 19.7556 85.8566 21.6641Z" fill="white"/>
<path d="M60.0841 28.9468C59.8015 33.5471 56.1814 35.1108 52.5639 34.6518C50.9974 34.4819 49.5388 33.7723 48.4382 32.6447C47.7302 31.9212 47.7328 31.5141 48.4252 30.7776C48.6015 30.5935 48.7986 30.4275 48.962 30.2331C49.5662 29.5199 50.1419 29.5199 50.8057 30.189C51.7315 31.1225 52.844 31.6074 54.1769 31.2703C55.5875 30.9177 56.42 29.9219 56.4511 28.3426C56.5107 25.3786 56.4692 22.4146 56.4978 19.4506C56.4978 18.8257 56.1995 18.7012 55.6731 18.709C54.5269 18.709 53.3782 18.7271 52.232 18.709C51.2103 18.6882 51.0469 18.4626 51.0443 17.2127C51.0417 15.9628 51.2388 15.7087 52.2346 15.7009C54.4647 15.6801 56.6974 15.7009 58.9276 15.7009C59.7729 15.7009 60.1489 16.095 60.1438 16.9249C60.1438 18.932 60.1438 20.9391 60.1438 22.9488C60.1282 22.9281 60.206 26.9475 60.0841 28.9468Z" fill="white"/>
<path d="M182.091 22.7567C179.667 22.4793 179.599 22.4404 179.574 21.359C179.545 20.2051 179.628 20.1506 182.143 19.8031C182.143 18.7892 182.187 17.7467 182.143 16.7094C182.091 15.7189 182.514 15.278 183.474 15.1069C185.727 14.7023 185.771 14.7127 185.771 17.0414V19.8991C186.855 19.8991 187.833 19.8991 188.81 19.8991C189.788 19.8991 190.04 20.1843 190.04 21.2683C190.04 22.3522 189.796 22.6426 188.823 22.6608C187.851 22.6789 186.866 22.6608 185.823 22.6608C185.823 25.1606 185.74 27.5463 185.857 29.9217C185.922 31.2779 187.244 31.8744 188.585 31.3428C189.925 30.8112 189.938 30.8241 190.4 31.8614C191.009 33.2384 190.919 33.5444 189.705 34.1278C186.658 35.5826 182.034 34.452 182.146 29.5561C182.18 27.689 182.11 23.1716 182.091 22.7567Z" fill="white"/>
<path d="M118.697 15.8306C118.679 14.8997 119.003 14.4407 119.921 14.228C122.216 13.6939 122.348 13.7742 122.348 16.16C122.348 20.7845 122.348 25.4081 122.348 30.0309C122.348 31.3119 122.348 31.286 123.578 31.3664C123.723 31.3879 123.862 31.4409 123.984 31.5215C124.107 31.6021 124.211 31.7084 124.288 31.8331C125.183 33.5602 124.731 34.3978 122.8 34.6856C120.396 35.0565 118.739 33.6691 118.718 31.2186C118.697 28.685 118.744 18.4238 118.697 15.8306Z" fill="white"/>
</svg>
