<svg width="735" height="1024" viewBox="0 0 735 1024" fill="none" xmlns="http://www.w3.org/2000/svg">
<path opacity="0.5" fill-rule="evenodd" clip-rule="evenodd" d="M74.446 495H-40V493H74.446V434V383H-40V381H74.446V278H-40V276H74.446V173H-40V171H74.446V68H-40V66H74.446V-36.6532L-40 -36.6532V-38.6532L74.446 -38.6532V-98H76.446V-38.6532L201.699 -38.6532V-98H202H203.699H204V-38.6532L330 -38.6532V-98H332V-38.6532L457 -38.6532V-98H459V-38.6532L561.5 -38.6532V-36.6532L459 -36.6532V66H571V-98H573V66H735V68H573V171H677V173H573V276H628V278H573V323H571V278H459V381H561.5V383H459V434V493H531V495H459V503.5V598H502V600H459V703H488V705H459V808H522V810H459V914H571V835H573V914H657V916H573V1036H571V916H459V1035.5H457V916H332V1035.5H330V916H203.699V1035.5H201.699V916H76.446V1035.5H74.446V916H-40V914H74.446V810H-40V808H74.446V705H-40V703H74.446V600H-40V598H74.446V503.5V495ZM457 381V278H332V381H457ZM332 383H457V434V493H332V434V383ZM330 381V278H204V381L330 381ZM204 383L330 383V434V493H204V383ZM201.699 381V278H76.446V381H201.699ZM76.446 383H201.699V434V493H76.446V434V383ZM204 276H330V173L204 173V276ZM332 276H457V173H332V276ZM571 276H459V173H571V276ZM76.446 276H201.699V173H76.446V276ZM459 171H571V68H459V171ZM457 171H332V68H457V171ZM330 171V68H204V171L330 171ZM201.699 171V68H76.446V171H201.699ZM204 66H330V-36.6532L204 -36.6532V66ZM332 66H457V-36.6532L332 -36.6532V66ZM76.446 66H201.699V-36.6532L76.446 -36.6532V66ZM457 503.5V495H332V503.5V598H457V503.5ZM204 495H330V503.5V598H203.699V503.5H204V495ZM76.446 495H201.699V503.5V598H76.446V503.5V495ZM457 810V914H332V810H457ZM330 810V914H203.699V810H330ZM201.699 810V914H76.446V810H201.699ZM76.446 808H201.699V705H76.446V808ZM203.699 808H330V705H203.699V808ZM332 808H457V705H332V808ZM457 600V703H332V600H457ZM330 600V703H203.699V600H330ZM201.699 600V703H76.446V600H201.699Z" fill="url(#paint0_radial_2068_16989)"/>
<defs>
<radialGradient id="paint0_radial_2068_16989" cx="0" cy="0" r="1" gradientUnits="userSpaceOnUse" gradientTransform="translate(660.5 342) rotate(147.006) scale(1222.09 835.206)">
<stop offset="0.154508" stop-color="#F9E0BC" stop-opacity="0"/>
<stop offset="1" stop-color="#F9E0BC"/>
</radialGradient>
</defs>
</svg>
