<svg width="183" height="41" viewBox="0 0 183 41" fill="none" xmlns="http://www.w3.org/2000/svg">
<path d="M12.1883 14.5162C11.5842 14.6803 11.0494 15.0355 10.6638 15.5287C10.2782 16.0219 10.0625 16.6266 10.049 17.2525C10.045 17.434 10.1133 17.6095 10.2388 17.7406C10.3643 17.8717 10.5367 17.9476 10.7182 17.9515C10.8996 17.9555 11.0752 17.8872 11.2062 17.7617C11.3373 17.6362 11.4132 17.4638 11.4172 17.2824C11.4264 16.9545 11.5414 16.6383 11.7451 16.3812C11.9489 16.1241 12.2303 15.9397 12.5474 15.8558C12.8646 15.7718 13.2003 15.7927 13.5046 15.9153C13.8089 16.0379 14.0653 16.2557 14.2356 16.5361C14.312 16.6628 14.4277 16.7612 14.565 16.8164C14.7023 16.8716 14.8539 16.8806 14.9968 16.8421C15.0593 16.8245 15.1194 16.7995 15.1759 16.7675C15.3305 16.6727 15.4413 16.5206 15.4842 16.3445C15.527 16.1683 15.4985 15.9823 15.4048 15.8271C15.0816 15.2911 14.5939 14.8738 14.0142 14.6376C13.4346 14.4013 12.7941 14.3587 12.1883 14.5162Z" fill="#FAFCFF"/>
<path d="M18.2924 15.907C18.4734 15.9103 18.6483 15.8417 18.7789 15.7163C18.9095 15.5909 18.985 15.4188 18.9889 15.2378C18.9991 14.9101 19.1148 14.5944 19.3188 14.3377C19.5228 14.0811 19.8042 13.8971 20.1212 13.8133C20.4382 13.7294 20.7737 13.7501 21.078 13.8723C21.3822 13.9945 21.6389 14.2117 21.8098 14.4915C21.886 14.6186 22.0016 14.7172 22.139 14.7724C22.2764 14.8277 22.4281 14.8365 22.571 14.7975C22.6332 14.7815 22.6928 14.7563 22.7476 14.7229C22.9026 14.6285 23.014 14.4766 23.0573 14.3004C23.1007 14.1242 23.0725 13.9381 22.979 13.7826C22.655 13.249 22.1668 12.8348 21.5877 12.602C21.0086 12.3692 20.3696 12.3302 19.7664 12.491C19.1633 12.6518 18.6285 13.0037 18.2421 13.4939C17.8557 13.9842 17.6386 14.5864 17.6232 15.2104C17.6212 15.3002 17.637 15.3894 17.6696 15.473C17.7022 15.5566 17.751 15.633 17.8131 15.6977C17.8753 15.7624 17.9496 15.8142 18.0319 15.8501C18.1141 15.886 18.2026 15.9053 18.2924 15.907Z" fill="#FAFCFF"/>
<path d="M38.7106 21.4036L30.9842 19.911C30.4195 17.518 28.6906 15.7617 27.7777 15.0627C27.8559 14.089 27.7837 13.109 27.5638 12.1572V12.1249C27.3276 11.2419 26.9522 10.4022 26.4518 9.63732C27.1037 8.18838 27.4472 6.61973 27.4605 5.03096C27.4737 3.44219 27.1565 1.86801 26.5289 0.408388C26.4607 0.252428 26.3366 0.127647 26.181 0.0585941C26.0254 -0.0104592 25.8496 -0.0187864 25.6881 0.0352507C23.0013 0.928034 20.7439 2.79069 19.3572 5.25917C17.5169 4.97125 15.6365 5.0736 13.8383 5.55959C12.0401 6.04557 10.3641 6.90433 8.91934 8.08009C6.48353 6.63752 3.59734 6.15501 0.824756 6.72684C0.657465 6.76065 0.509036 6.8562 0.409009 6.99449C0.308981 7.13277 0.26469 7.30365 0.284951 7.47312C0.470318 9.05301 0.983054 10.5769 1.79043 11.9475C2.5978 13.3181 3.68208 14.5053 4.97404 15.4334C4.92672 16.3373 5.02157 17.243 5.25514 18.1175C5.96907 20.7046 7.79993 22.8115 10.4467 24.0404C10.4781 24.0574 10.5105 24.0723 10.5437 24.0852C13.1809 25.2331 16.1319 25.442 18.9045 24.6772C18.9282 24.6747 18.9515 24.6697 18.9741 24.6623C19.1251 24.6098 19.2852 24.5891 19.4445 24.6013C19.6038 24.6136 19.7589 24.6585 19.9001 24.7334C20.0412 24.8083 20.1654 24.9115 20.2648 25.0366C20.3643 25.1617 20.4368 25.3059 20.478 25.4603C20.5192 25.6147 20.5281 25.7759 20.5041 25.9339C20.4801 26.0919 20.4238 26.2432 20.3387 26.3784C20.2536 26.5136 20.1415 26.6299 20.0094 26.7198C19.8774 26.8097 19.7282 26.8715 19.5712 26.9011L19.5065 26.921C15.708 28.3638 10.1333 28.1648 6.81983 26.4907C6.70004 26.4308 6.56519 26.4079 6.43234 26.4247C6.2995 26.4415 6.17463 26.4974 6.07355 26.5852L0.230224 31.7121C0.138484 31.7932 0.0702776 31.8975 0.0327708 32.014C-0.00473603 32.1306 -0.0101579 32.2551 0.0170749 32.3744C0.0443077 32.4938 0.10319 32.6036 0.187533 32.6924C0.271877 32.7811 0.378568 32.8455 0.496395 32.8788L12.3796 36.1674L13.5089 39.2122C13.8074 40.0132 13.9567 40.4162 14.5537 40.2545C14.6446 40.2314 14.7295 40.189 14.8025 40.1301C16.7502 38.5778 19.3821 37.3042 22.2155 36.5455C25.0488 35.7868 27.8598 35.5828 30.32 35.9261C30.4984 35.951 30.6794 35.9042 30.8234 35.7961C30.9674 35.6879 31.0628 35.5272 31.0887 35.349C31.0999 35.2789 31.0999 35.2076 31.0887 35.1375L30.427 31.329L39.0713 22.5379C39.1988 22.4101 39.2703 22.237 39.2703 22.0566C39.2703 21.8761 39.1988 21.703 39.0713 21.5752C38.9761 21.4811 38.8547 21.4178 38.7231 21.3936L38.7106 21.4036ZM6.57356 17.7543C6.34561 16.9062 6.27396 16.0236 6.36211 15.1498C6.37298 15.0239 6.34903 14.8975 6.29287 14.7843C6.23672 14.6711 6.15052 14.5755 6.0437 14.508C4.00921 13.142 2.53933 11.0844 1.90685 8.71691C1.8372 8.46815 1.7775 8.19452 1.73024 7.93332C4.13825 7.59709 6.58638 8.1479 8.61835 9.48309C8.75224 9.56974 8.91235 9.60652 9.07063 9.58696C9.22891 9.5674 9.37526 9.49276 9.48403 9.37612C10.8483 8.19308 12.4641 7.33631 14.2089 6.87082C15.9536 6.40532 17.7815 6.34332 19.5538 6.68953C19.6693 6.72192 19.7915 6.72192 19.907 6.68953C19.9953 6.66349 20.0773 6.61958 20.1479 6.56053C20.2185 6.50147 20.2762 6.42854 20.3174 6.34624C21.409 4.17342 23.2532 2.47153 25.5065 1.55765C25.5961 1.80641 25.6757 2.05517 25.7553 2.32383C26.3896 4.68098 26.1484 7.18816 25.0762 9.38109C25.013 9.49353 24.9834 9.62173 24.9909 9.75048C24.9984 9.87922 25.0427 10.0031 25.1185 10.1075C25.6396 10.8246 26.0242 11.6316 26.2528 12.4881V12.5229C26.5787 13.7418 26.3921 15.3015 26.3921 15.3165C26.3753 15.4488 26.3979 15.5832 26.4572 15.7027C26.5165 15.8222 26.6099 15.9215 26.7255 15.9881C26.7802 16.0205 31.7703 19.5528 28.9419 24.4956C27.9554 26.1408 26.8071 27.6833 25.514 29.1002C25.2771 29.2933 24.9787 29.3948 24.6732 29.3862C24.3254 29.4142 23.9804 29.3063 23.7105 29.0852C23.4859 28.8699 23.3544 28.5753 23.3442 28.2643C23.334 27.9533 23.4458 27.6507 23.6558 27.421C23.6761 27.4024 23.6952 27.3824 23.713 27.3613C24.8654 25.9191 25.6797 24.2369 26.0961 22.4384C26.2937 21.5861 26.1451 20.6902 25.683 19.9473C25.2208 19.2043 24.4828 18.6751 23.6309 18.4757L23.4891 18.4458L17.2975 17.3065C17.1976 17.288 17.0949 17.2919 16.9968 17.3182C16.8986 17.3445 16.8076 17.3923 16.7303 17.4583L10.6955 22.6474C8.59845 21.5752 7.1457 19.8513 6.58599 17.7618L6.57356 17.7543Z" fill="#FAFCFF"/>
<path d="M106.365 20.5197C107.872 18.8779 109.101 18.4824 110.76 19.2063C111.094 19.3531 111.566 19.8033 111.534 20.0521C111.437 20.7784 111.126 21.4774 110.862 22.174C110.84 22.2262 110.522 22.2088 110.365 22.159C109.522 21.9103 109.275 22.2809 109.28 23.0745C109.303 25.7636 109.211 28.4576 109.303 31.1442C109.494 36.8109 105.163 38.587 101.014 38.2238C99.1025 38.1034 97.301 37.2876 95.9494 35.9303C95.2032 35.184 95.2654 34.7785 96.1982 33.7761C96.8126 33.1069 97.3425 33.2785 97.9072 33.8333C99.3674 35.2935 101.176 35.6766 103.131 35.4029C105.355 35.092 106.537 33.0671 105.932 30.5123C103.765 31.9129 101.482 32.2885 99.0838 31.2785C97.8288 30.7579 96.7871 29.8276 96.1285 28.6392C94.6957 26.1118 95.1335 22.7685 97.1634 20.7585C99.5183 18.4202 102.585 18.3406 106.365 20.5197ZM106.305 25.383C106.311 24.8837 106.216 24.3885 106.027 23.9263C105.839 23.464 105.56 23.0441 105.207 22.6912C104.853 22.3383 104.433 22.0595 103.971 21.8712C103.509 21.6828 103.013 21.5887 102.514 21.5944C102.015 21.5885 101.519 21.6845 101.058 21.8766C100.597 22.0687 100.18 22.3529 99.8321 22.7117C99.4845 23.0705 99.2137 23.4964 99.0363 23.9634C98.8589 24.4304 98.7785 24.9286 98.8002 25.4277C98.835 27.5795 100.387 29.1342 102.532 29.1591C103.03 29.1679 103.525 29.0762 103.987 28.8895C104.449 28.7028 104.868 28.4249 105.22 28.0725C105.573 27.72 105.85 27.3002 106.037 26.8381C106.223 26.376 106.314 25.8811 106.305 25.383Z" fill="white"/>
<path d="M137.24 24.1171C137.382 20.03 139.121 17.0648 142.78 15.52C146.511 13.9454 150.069 14.433 153.201 17.1419C154.002 17.836 154.069 18.3435 153.544 18.9181C152.382 20.1917 151.88 20.3211 150.969 19.5848C148.009 17.1892 144.355 17.423 142.183 20.1594C140.263 22.5699 140.504 26.3012 142.718 28.453C144.86 30.5376 148.34 30.6072 150.74 28.6147C150.971 28.4066 151.25 28.2594 151.552 28.1866C151.854 28.1137 152.169 28.1175 152.469 28.1976C152.769 28.2777 153.045 28.4316 153.27 28.6452C153.496 28.8588 153.664 29.1253 153.76 29.4207C153.872 29.744 153.663 30.3361 153.4 30.6097C151.375 32.6943 148.832 33.4729 145.989 33.3063C143.955 33.209 142.012 32.4362 140.467 31.1102C138.922 29.7842 137.864 27.9807 137.459 25.9853C137.354 25.3668 137.281 24.7432 137.24 24.1171Z" fill="white"/>
<path d="M167.063 20.5601C167.113 19.677 167.352 19.0327 168.444 19.0676C169.936 19.1198 170.115 19.2392 170.115 20.7591C170.115 24.2716 170.115 27.784 170.115 31.2965C170.115 32.5602 169.901 32.8836 169.046 32.9408C167.521 33.0428 167.304 32.8786 167.026 31.3438C165.533 32.7567 163.792 33.4906 161.802 33.2915C159.812 33.0925 158.185 32.2368 156.996 30.6099C154.993 27.8736 155.123 23.7915 157.282 21.2318C158.526 19.7715 160.123 19.0576 161.991 18.9108C163.434 18.8039 163.891 18.983 167.063 20.5601ZM159.103 26.1074C159.073 28.4582 160.715 30.2194 162.949 30.2368C165.182 30.2542 166.802 28.5204 166.814 26.1248C166.827 23.7293 165.247 21.9755 163.016 21.9482C160.784 21.9208 159.135 23.6422 159.103 26.1074Z" fill="white"/>
<path d="M124.646 26.8751C124.515 29.1611 126.997 31.0617 129.577 30.5442C130.572 30.3452 131.477 29.7781 132.395 29.3154C133.117 28.9497 133.517 29.089 134.271 30.0617C134.706 30.6164 134.462 31.0044 134.05 31.4049C131.661 33.7259 126.746 33.9622 123.89 31.9025C121.142 29.9124 120.248 25.9646 121.818 22.7407C123.241 19.8203 126.557 18.3576 130.047 19.1163C132.99 19.7556 135.035 22.3079 135.154 25.487C135.196 26.6263 134.943 26.895 133.791 26.8975L124.646 26.8751ZM131.637 24.6984C131.465 22.5342 129.798 21.3079 127.53 21.5541C125.893 21.7332 124.545 23.2457 124.748 24.6984H131.637Z" fill="white"/>
<path d="M70.956 31.1808C69.8714 32.7007 68.4112 33.3599 66.6102 33.3151C63.6077 33.238 61.4087 31.0763 61.3564 28.0713C61.3117 25.4743 61.3564 22.8748 61.3415 20.2777C61.3415 19.4145 61.7221 19.0862 62.5654 19.0787C64.8042 19.0638 64.8042 19.0439 64.8042 21.2628C64.8042 23.1882 64.7893 25.1161 64.8042 27.039C64.8216 28.33 65.1724 29.4843 66.4908 30.0241C68.4311 30.84 70.4162 29.5688 70.4908 27.4022C70.568 25.1633 70.5182 22.9419 70.5232 20.7106C70.5232 19.218 70.66 19.0787 72.1326 19.0762H72.5928C73.8242 19.0762 74.0058 19.2603 74.0083 20.529C74.0083 23.2504 74.0083 25.9693 74.0083 28.6907C74.0083 28.9967 74.0207 29.3027 74.0257 29.6062C74.0381 30.1733 74.3391 30.3922 74.864 30.2305C75.9461 29.8922 75.859 30.8126 76.1078 31.3649C76.374 31.9743 76.4386 32.5166 75.6799 32.8923C73.864 33.7952 72.1252 33.2803 71.2023 31.5191C71.127 31.4016 71.0447 31.2886 70.956 31.1808Z" fill="white"/>
<path d="M82.3603 20.782C83.5146 20.1925 84.5991 19.389 85.7957 19.0731C86.5672 18.8639 87.3762 18.8321 88.1618 18.9801C88.9474 19.1281 89.6893 19.452 90.3319 19.9275C90.9745 20.403 91.5011 21.0179 91.8722 21.726C92.2434 22.434 92.4494 23.2169 92.4748 24.0159C92.5868 26.6403 92.5047 29.2722 92.5072 31.904C92.5072 32.5707 92.1788 32.9389 91.5122 32.9413C89.1713 32.9413 89.0096 33.1901 89.0544 30.7025C89.0892 28.8368 89.1042 26.9712 89.0544 25.1055C88.9798 22.6975 87.0942 21.3741 84.9325 22.1403C83.6887 22.588 83.0394 23.5905 83.0121 25.2647C82.9772 27.2547 83.0121 29.2448 82.9748 31.2349C82.9748 31.8194 83.2061 32.6528 82.4424 32.8195C81.6163 32.9522 80.7726 32.9294 79.9548 32.7523C79.7583 32.7175 79.5568 32.0458 79.5518 31.6652C79.517 28.8816 79.5344 26.1005 79.5319 23.3169C79.5319 22.0731 79.5319 22.0731 78.3354 22.2074C78.2185 22.2224 78.012 22.2572 77.9971 22.2224C77.726 21.5656 77.3852 20.9139 77.2657 20.2323C77.2185 19.9562 77.5966 19.4537 77.9051 19.2945C79.6961 18.3442 81.2658 18.9512 82.3603 20.782Z" fill="white"/>
<path d="M57.6368 27.7682C57.3656 32.1811 53.8929 33.6811 50.4228 33.2408C48.9201 33.0778 47.5209 32.3971 46.465 31.3154C45.7859 30.6214 45.7884 30.2309 46.4526 29.5244C46.6218 29.3478 46.8108 29.1886 46.9675 29.002C47.5471 28.3179 48.0994 28.3179 48.7362 28.9597C49.6243 29.8552 50.6914 30.3204 51.97 29.997C53.3233 29.6587 54.1218 28.7035 54.1517 27.1885C54.2089 24.3452 54.1691 21.5019 54.1964 18.6586C54.1964 18.0591 53.9104 17.9397 53.4054 17.9472C52.3059 17.9472 51.2039 17.9646 50.1044 17.9472C49.1243 17.9273 48.9675 17.7109 48.9651 16.5118C48.9626 15.3128 49.1516 15.069 50.1069 15.0616C52.2462 15.0417 54.388 15.0616 56.5273 15.0616C57.3382 15.0616 57.6989 15.4397 57.694 16.2357C57.694 18.1611 57.694 20.0865 57.694 22.0144C57.679 21.9945 57.7537 25.8502 57.6368 27.7682Z" fill="white"/>
<path d="M174.677 21.8299C172.351 21.5637 172.286 21.5264 172.261 20.4891C172.234 19.3821 172.313 19.3298 174.726 18.9965C174.726 18.0239 174.769 17.0239 174.726 16.0288C174.677 15.0786 175.082 14.6557 176.003 14.4915C178.164 14.1034 178.207 14.1134 178.207 16.3472V19.0886C179.246 19.0886 180.184 19.0886 181.122 19.0886C182.06 19.0886 182.301 19.3622 182.301 20.402C182.301 21.4418 182.067 21.7204 181.134 21.7378C180.202 21.7552 179.256 21.7378 178.256 21.7378C178.256 24.1359 178.177 26.4244 178.289 28.7031C178.351 30.0041 179.619 30.5762 180.906 30.0663C182.192 29.5563 182.204 29.5687 182.647 30.5638C183.231 31.8847 183.144 32.1782 181.98 32.7379C179.057 34.1334 174.622 33.0489 174.729 28.3523C174.761 26.5612 174.694 22.2279 174.677 21.8299Z" fill="white"/>
<path d="M113.864 15.1863C113.847 14.2932 114.158 13.8529 115.038 13.649C117.24 13.1365 117.367 13.2136 117.367 15.5022C117.367 19.9384 117.367 24.3738 117.367 28.8083C117.367 30.0372 117.367 30.0123 118.546 30.0894C118.685 30.1101 118.818 30.1609 118.936 30.2382C119.053 30.3155 119.153 30.4175 119.227 30.5372C120.085 32.1939 119.653 32.9974 117.799 33.2735C115.493 33.6292 113.904 32.2984 113.884 29.9476C113.864 27.5172 113.909 17.6739 113.864 15.1863Z" fill="white"/>
</svg>
