<svg width="40" height="41" viewBox="0 0 40 41" fill="none" xmlns="http://www.w3.org/2000/svg">
<path d="M12.1883 14.5164C11.5842 14.6806 11.0494 15.0358 10.6638 15.529C10.2782 16.0222 10.0625 16.6269 10.049 17.2528C10.045 17.4342 10.1133 17.6098 10.2388 17.7409C10.3643 17.872 10.5367 17.9478 10.7182 17.9518C10.8996 17.9557 11.0752 17.8875 11.2062 17.762C11.3373 17.6365 11.4132 17.4641 11.4172 17.2826C11.4264 16.9547 11.5414 16.6386 11.7451 16.3814C11.9489 16.1243 12.2303 15.94 12.5474 15.856C12.8646 15.772 13.2003 15.7929 13.5046 15.9156C13.8089 16.0382 14.0653 16.256 14.2356 16.5364C14.312 16.6631 14.4277 16.7615 14.565 16.8167C14.7023 16.8719 14.8539 16.8809 14.9968 16.8423C15.0593 16.8248 15.1194 16.7997 15.1759 16.7677C15.3305 16.6729 15.4413 16.5209 15.4842 16.3447C15.527 16.1686 15.4985 15.9826 15.4048 15.8274C15.0816 15.2913 14.5939 14.8741 14.0142 14.6378C13.4346 14.4016 12.7941 14.359 12.1883 14.5164Z" fill="white"/>
<path d="M18.2924 15.9072C18.4734 15.9105 18.6483 15.842 18.7789 15.7165C18.9095 15.5911 18.985 15.419 18.9889 15.238C18.9991 14.9103 19.1148 14.5946 19.3188 14.338C19.5228 14.0813 19.8042 13.8974 20.1212 13.8135C20.4382 13.7296 20.7737 13.7504 21.078 13.8726C21.3822 13.9948 21.6389 14.2119 21.8098 14.4918C21.886 14.6188 22.0016 14.7174 22.139 14.7727C22.2764 14.8279 22.4281 14.8367 22.571 14.7977C22.6332 14.7817 22.6928 14.7566 22.7476 14.7231C22.9026 14.6288 23.014 14.4769 23.0573 14.3007C23.1007 14.1245 23.0725 13.9383 22.979 13.7828C22.655 13.2493 22.1668 12.8351 21.5877 12.6022C21.0086 12.3694 20.3696 12.3305 19.7664 12.4913C19.1633 12.6521 18.6285 13.0039 18.2421 13.4942C17.8557 13.9844 17.6386 14.5867 17.6232 15.2107C17.6212 15.3004 17.637 15.3896 17.6696 15.4732C17.7022 15.5569 17.751 15.6332 17.8131 15.6979C17.8753 15.7626 17.9496 15.8144 18.0319 15.8504C18.1141 15.8863 18.2026 15.9056 18.2924 15.9072Z" fill="white"/>
<path d="M38.7106 21.4036L30.9842 19.911C30.4195 17.518 28.6906 15.7617 27.7777 15.0627C27.8559 14.089 27.7837 13.109 27.5638 12.1572V12.1249C27.3276 11.2419 26.9522 10.4022 26.4518 9.63732C27.1037 8.18838 27.4472 6.61973 27.4605 5.03096C27.4737 3.44219 27.1565 1.86801 26.5289 0.408388C26.4607 0.252428 26.3366 0.127647 26.181 0.0585941C26.0254 -0.0104592 25.8496 -0.0187864 25.6881 0.0352507C23.0013 0.928034 20.7439 2.79069 19.3572 5.25917C17.5169 4.97125 15.6365 5.0736 13.8383 5.55959C12.0401 6.04557 10.3641 6.90433 8.91934 8.08009C6.48353 6.63752 3.59734 6.15501 0.824756 6.72684C0.657465 6.76065 0.509036 6.8562 0.409009 6.99449C0.308981 7.13277 0.26469 7.30365 0.284951 7.47312C0.470318 9.05301 0.983054 10.5769 1.79043 11.9475C2.5978 13.3181 3.68208 14.5053 4.97404 15.4334C4.92672 16.3373 5.02157 17.243 5.25514 18.1175C5.96907 20.7046 7.79993 22.8115 10.4467 24.0404C10.4781 24.0574 10.5105 24.0723 10.5437 24.0852C13.1809 25.2331 16.1319 25.442 18.9045 24.6772C18.9282 24.6747 18.9515 24.6697 18.9741 24.6623C19.1251 24.6098 19.2852 24.5891 19.4445 24.6013C19.6038 24.6136 19.7589 24.6585 19.9001 24.7334C20.0412 24.8083 20.1654 24.9115 20.2648 25.0366C20.3643 25.1617 20.4368 25.3059 20.478 25.4603C20.5192 25.6147 20.5281 25.7759 20.5041 25.9339C20.4801 26.0919 20.4238 26.2432 20.3387 26.3784C20.2536 26.5136 20.1415 26.6299 20.0094 26.7198C19.8774 26.8097 19.7282 26.8715 19.5712 26.9011L19.5065 26.921C15.708 28.3638 10.1333 28.1648 6.81983 26.4907C6.70004 26.4308 6.56519 26.4079 6.43234 26.4247C6.2995 26.4415 6.17463 26.4974 6.07355 26.5852L0.230224 31.7121C0.138484 31.7932 0.0702776 31.8975 0.0327708 32.014C-0.00473603 32.1306 -0.0101579 32.2551 0.0170749 32.3744C0.0443077 32.4938 0.10319 32.6036 0.187533 32.6924C0.271877 32.7811 0.378568 32.8455 0.496395 32.8788L12.3796 36.1674L13.5089 39.2122C13.8074 40.0132 13.9567 40.4162 14.5537 40.2545C14.6446 40.2314 14.7295 40.189 14.8025 40.1301C16.7502 38.5778 19.3821 37.3042 22.2155 36.5455C25.0488 35.7868 27.8598 35.5828 30.32 35.9261C30.4984 35.951 30.6794 35.9042 30.8234 35.7961C30.9674 35.6879 31.0628 35.5272 31.0887 35.349C31.0999 35.2789 31.0999 35.2076 31.0887 35.1375L30.427 31.329L39.0713 22.5379C39.1988 22.4101 39.2703 22.237 39.2703 22.0566C39.2703 21.8761 39.1988 21.703 39.0713 21.5752C38.9761 21.4811 38.8547 21.4178 38.7231 21.3936L38.7106 21.4036ZM6.57356 17.7543C6.34561 16.9062 6.27396 16.0236 6.36211 15.1498C6.37298 15.0239 6.34903 14.8975 6.29287 14.7843C6.23672 14.6711 6.15052 14.5755 6.0437 14.508C4.00921 13.142 2.53933 11.0844 1.90685 8.71691C1.8372 8.46815 1.7775 8.19452 1.73024 7.93332C4.13825 7.59709 6.58638 8.1479 8.61835 9.48309C8.75224 9.56974 8.91235 9.60652 9.07063 9.58696C9.22891 9.5674 9.37526 9.49276 9.48403 9.37612C10.8483 8.19308 12.4641 7.33631 14.2089 6.87082C15.9536 6.40532 17.7815 6.34332 19.5538 6.68953C19.6693 6.72192 19.7915 6.72192 19.907 6.68953C19.9953 6.66349 20.0773 6.61958 20.1479 6.56053C20.2185 6.50147 20.2762 6.42854 20.3174 6.34624C21.409 4.17342 23.2532 2.47153 25.5065 1.55765C25.5961 1.80641 25.6757 2.05517 25.7553 2.32383C26.3896 4.68098 26.1484 7.18816 25.0762 9.38109C25.013 9.49353 24.9834 9.62173 24.9909 9.75048C24.9984 9.87922 25.0427 10.0031 25.1185 10.1075C25.6396 10.8246 26.0242 11.6316 26.2528 12.4881V12.5229C26.5787 13.7418 26.3921 15.3015 26.3921 15.3165C26.3753 15.4488 26.3979 15.5832 26.4572 15.7027C26.5165 15.8222 26.6099 15.9215 26.7255 15.9881C26.7802 16.0205 31.7703 19.5528 28.9419 24.4956C27.9554 26.1408 26.8071 27.6833 25.514 29.1002C25.2771 29.2933 24.9787 29.3948 24.6732 29.3862C24.3254 29.4142 23.9804 29.3063 23.7105 29.0852C23.4859 28.8699 23.3544 28.5753 23.3442 28.2643C23.334 27.9533 23.4458 27.6507 23.6558 27.421C23.6761 27.4024 23.6952 27.3824 23.713 27.3613C24.8654 25.9191 25.6797 24.2369 26.0961 22.4384C26.2937 21.5861 26.1451 20.6902 25.683 19.9473C25.2208 19.2043 24.4828 18.6751 23.6309 18.4757L23.4891 18.4458L17.2975 17.3065C17.1976 17.288 17.0949 17.2919 16.9968 17.3182C16.8986 17.3445 16.8076 17.3923 16.7303 17.4583L10.6955 22.6474C8.59845 21.5752 7.1457 19.8513 6.58599 17.7618L6.57356 17.7543Z" fill="white"/>
</svg>
