<svg width="81" height="82" viewBox="0 0 81 82" fill="none" xmlns="http://www.w3.org/2000/svg">
<g filter="url(#filter0_b_261_735)">
<path fill-rule="evenodd" clip-rule="evenodd" d="M15.4845 76.0724L14.1795 73.1373C13.7145 72.0898 12.9292 71.2168 11.9366 70.6439C10.9434 70.071 9.79447 69.8269 8.65417 69.9467L5.46106 70.2866C3.51942 70.4907 1.63946 69.5332 0.662718 67.8428C-0.314373 66.1524 -0.203506 64.0449 0.945557 62.4663L2.83612 59.8687C3.51033 58.9415 3.8734 57.8245 3.87319 56.6781C3.8734 55.5316 3.51033 54.4146 2.83612 53.4874L0.945557 50.8898C-0.203506 49.3112 -0.314373 47.2038 0.662718 45.5133C1.63854 43.8219 3.51918 42.8641 5.46106 43.0695L8.66409 43.4094C9.80439 43.5292 10.9533 43.2851 11.9465 42.7122C12.9354 42.1377 13.7171 41.2649 14.1795 40.2188L15.4845 37.2837C16.2771 35.4987 18.047 34.3486 20 34.3486C21.953 34.3486 23.7229 35.4987 24.5155 37.2837L25.8305 40.2188C26.2928 41.2649 27.0745 42.1377 28.0634 42.7122C29.0566 43.2851 30.2055 43.5292 31.3458 43.4094L34.5389 43.0695C36.4808 42.8641 38.3615 43.8219 39.3373 45.5133C40.3144 47.2038 40.2035 49.3112 39.0544 50.8898L37.1639 53.4874C36.4897 54.4146 36.1266 55.5316 36.1268 56.6781C36.1211 57.8276 36.4808 58.9493 37.154 59.8811L39.0445 62.4787C40.1936 64.0573 40.3044 66.1648 39.3274 67.8552C38.3515 69.5466 36.4709 70.5044 34.529 70.299L31.3359 69.9591C30.1956 69.8394 29.0467 70.0834 28.0535 70.6563C27.0665 71.2276 26.2851 72.0959 25.8205 73.1373L24.5155 76.0724C23.7229 77.8574 21.953 79.0075 20 79.0075C18.047 79.0075 16.2771 77.8574 15.4845 76.0724ZM20.0009 63.2455C23.628 63.2455 26.5683 60.3052 26.5683 56.6782C26.5683 53.0511 23.628 50.1108 20.0009 50.1108C16.3739 50.1108 13.4336 53.0511 13.4336 56.6782C13.4336 60.3052 16.3739 63.2455 20.0009 63.2455Z" fill="url(#paint0_linear_261_735)"/>
</g>
<g filter="url(#filter1_f_261_735)">
<path d="M29.5498 52.624C37.5446 52.624 44.373 54.0022 44.373 59.5104C44.373 65.0229 37.588 66.4485 29.5498 66.4485C21.5549 66.4485 14.7265 65.0704 14.7265 59.5622C14.7265 54.0496 21.5115 52.624 29.5498 52.624Z" fill="#EF5641" fill-opacity="0.5"/>
</g>
<g filter="url(#filter2_f_261_735)">
<path d="M36.2017 49.4265C31.7132 49.4265 28.1162 45.7365 28.1162 41.1319C28.1162 36.5272 31.7132 32.8372 36.2017 32.8372C40.6885 32.8372 44.2871 36.5272 44.2871 41.1319C44.2871 45.7365 40.6885 49.4265 36.2017 49.4265Z" fill="#EF5641" fill-opacity="0.5"/>
</g>
<g filter="url(#filter3_b_261_735)">
<mask id="path-4-outside-1_261_735" maskUnits="userSpaceOnUse" x="15" y="0" width="66" height="83" fill="black">
<rect fill="white" x="15" width="66" height="83"/>
<path fill-rule="evenodd" clip-rule="evenodd" d="M27.0902 22.1663C27.0902 33.9163 36.4628 43.3325 48.1584 43.3325C59.8497 43.3325 69.2266 33.9163 69.2266 22.1663C69.2266 10.4162 59.8497 1 48.1584 1C36.4628 1 27.0902 10.4162 27.0902 22.1663ZM80 67.2995C80 56.4226 65.3328 53.7012 48.1604 53.7012C30.8946 53.7012 16.3207 56.5162 16.3207 67.4017C16.3207 78.2787 30.9879 81.0001 48.1604 81.0001C65.4261 81.0001 80 78.185 80 67.2995Z"/>
</mask>
<path fill-rule="evenodd" clip-rule="evenodd" d="M27.0902 22.1663C27.0902 33.9163 36.4628 43.3325 48.1584 43.3325C59.8497 43.3325 69.2266 33.9163 69.2266 22.1663C69.2266 10.4162 59.8497 1 48.1584 1C36.4628 1 27.0902 10.4162 27.0902 22.1663ZM80 67.2995C80 56.4226 65.3328 53.7012 48.1604 53.7012C30.8946 53.7012 16.3207 56.5162 16.3207 67.4017C16.3207 78.2787 30.9879 81.0001 48.1604 81.0001C65.4261 81.0001 80 78.185 80 67.2995Z" fill="#FFAC95" fill-opacity="0.4"/>
<path d="M48.1584 44.3325C35.9062 44.3325 26.0902 34.4642 26.0902 22.1663H28.0902C28.0902 33.3684 37.0195 42.3325 48.1584 42.3325V44.3325ZM70.2266 22.1663C70.2266 34.4643 60.4063 44.3325 48.1584 44.3325V42.3325C59.2932 42.3325 68.2266 33.3683 68.2266 22.1663H70.2266ZM48.1584 0C60.4063 0 70.2266 9.86819 70.2266 22.1663H68.2266C68.2266 10.9643 59.2932 2 48.1584 2V0ZM26.0902 22.1663C26.0902 9.86832 35.9062 0 48.1584 0V2C37.0195 2 28.0902 10.9641 28.0902 22.1663H26.0902ZM48.1604 52.7012C56.7693 52.7012 64.8706 53.3793 70.851 55.4779C73.8478 56.5295 76.3827 57.9616 78.1756 59.9087C79.9895 61.8786 81 64.3301 81 67.2995H79C79 64.8305 78.1771 62.8629 76.7043 61.2634C75.2105 59.6411 73.0053 58.3534 70.1887 57.3651C64.5424 55.3837 56.7239 54.7012 48.1604 54.7012V52.7012ZM15.3207 67.4017C15.3207 64.4324 16.3238 61.9749 18.1287 59.995C19.9132 58.0375 22.4388 56.5919 25.4307 55.5273C31.4006 53.4029 39.5032 52.7012 48.1604 52.7012V54.7012C39.5518 54.7012 31.7346 55.407 26.1011 57.4115C23.2913 58.4114 21.0943 59.7106 19.6067 61.3424C18.1394 62.9519 17.3207 64.9283 17.3207 67.4017H15.3207ZM48.1604 82.0001C39.5514 82.0001 31.4501 81.322 25.4698 79.2234C22.4729 78.1718 19.938 76.7397 18.1452 74.7926C16.3313 72.8227 15.3207 70.3712 15.3207 67.4017H17.3207C17.3207 69.8708 18.1436 71.8383 19.6164 73.4378C21.1103 75.0602 23.3155 76.3479 26.132 77.3362C31.7784 79.3176 39.5969 80.0001 48.1604 80.0001V82.0001ZM81 67.2995C81 70.2688 79.9969 72.7264 78.1921 74.7063C76.4075 76.6638 73.8819 78.1094 70.8901 79.174C64.9201 81.2984 56.8176 82.0001 48.1604 82.0001V80.0001C56.7689 80.0001 64.5862 79.2943 70.2196 77.2898C73.0294 76.2899 75.2264 74.9907 76.714 73.3589C78.1813 71.7494 79 69.773 79 67.2995H81Z" fill="url(#paint1_linear_261_735)" mask="url(#path-4-outside-1_261_735)"/>
</g>
<defs>
<filter id="filter0_b_261_735" x="-13" y="21.3486" width="66" height="70.6588" filterUnits="userSpaceOnUse" color-interpolation-filters="sRGB">
<feFlood flood-opacity="0" result="BackgroundImageFix"/>
<feGaussianBlur in="BackgroundImage" stdDeviation="6.5"/>
<feComposite in2="SourceAlpha" operator="in" result="effect1_backgroundBlur_261_735"/>
<feBlend mode="normal" in="SourceGraphic" in2="effect1_backgroundBlur_261_735" result="shape"/>
</filter>
<filter id="filter1_f_261_735" x="1.72644" y="39.624" width="55.6466" height="39.8245" filterUnits="userSpaceOnUse" color-interpolation-filters="sRGB">
<feFlood flood-opacity="0" result="BackgroundImageFix"/>
<feBlend mode="normal" in="SourceGraphic" in2="BackgroundImageFix" result="shape"/>
<feGaussianBlur stdDeviation="6.5" result="effect1_foregroundBlur_261_735"/>
</filter>
<filter id="filter2_f_261_735" x="13.1162" y="17.8372" width="46.1709" height="46.5894" filterUnits="userSpaceOnUse" color-interpolation-filters="sRGB">
<feFlood flood-opacity="0" result="BackgroundImageFix"/>
<feBlend mode="normal" in="SourceGraphic" in2="BackgroundImageFix" result="shape"/>
<feGaussianBlur stdDeviation="7.5" result="effect1_foregroundBlur_261_735"/>
</filter>
<filter id="filter3_b_261_735" x="0.320679" y="-15" width="95.6793" height="112" filterUnits="userSpaceOnUse" color-interpolation-filters="sRGB">
<feFlood flood-opacity="0" result="BackgroundImageFix"/>
<feGaussianBlur in="BackgroundImage" stdDeviation="7.5"/>
<feComposite in2="SourceAlpha" operator="in" result="effect1_backgroundBlur_261_735"/>
<feBlend mode="normal" in="SourceGraphic" in2="effect1_backgroundBlur_261_735" result="shape"/>
</filter>
<linearGradient id="paint0_linear_261_735" x1="22.9448" y1="59.6686" x2="-13.5841" y2="75.5769" gradientUnits="userSpaceOnUse">
<stop stop-color="#FFA78F"/>
<stop offset="1" stop-color="#F23E2C"/>
</linearGradient>
<linearGradient id="paint1_linear_261_735" x1="69.8633" y1="10.3201" x2="17.6649" y2="61.78" gradientUnits="userSpaceOnUse">
<stop stop-color="white" stop-opacity="0.25"/>
<stop offset="1" stop-color="white" stop-opacity="0"/>
</linearGradient>
</defs>
</svg>
