<svg width="146" height="32" viewBox="0 0 146 32" fill="none" xmlns="http://www.w3.org/2000/svg">
<path d="M9.68109 11.5292C9.20126 11.6596 8.77649 11.9417 8.47024 12.3334C8.16399 12.7251 7.99269 13.2054 7.98194 13.7025C7.9788 13.8466 8.03302 13.9861 8.1327 14.0902C8.23237 14.1943 8.36932 14.2546 8.51342 14.2577C8.65752 14.2609 8.79697 14.2066 8.90108 14.107C9.0052 14.0073 9.06546 13.8704 9.06861 13.7263C9.07592 13.4658 9.1673 13.2147 9.32911 13.0105C9.49091 12.8063 9.71445 12.6599 9.96632 12.5932C10.2182 12.5265 10.4849 12.5431 10.7266 12.6405C10.9682 12.7379 11.1719 12.9108 11.3071 13.1335C11.3679 13.2342 11.4597 13.3123 11.5688 13.3562C11.6778 13.4 11.7982 13.4072 11.9117 13.3765C11.9614 13.3626 12.0091 13.3427 12.054 13.3173C12.1767 13.242 12.2648 13.1212 12.2988 12.9813C12.3329 12.8414 12.3102 12.6937 12.2357 12.5704V12.5704C11.9791 12.1447 11.5917 11.8133 11.1313 11.6256C10.6709 11.438 10.1622 11.4042 9.68109 11.5292V11.5292Z" fill="white"/>
<path d="M14.5287 12.6343C14.6725 12.6369 14.8114 12.5825 14.9151 12.4828C15.0188 12.3832 15.0788 12.2465 15.0819 12.1028V12.1028C15.09 11.8425 15.1819 11.5918 15.3439 11.3879C15.506 11.184 15.7295 11.0379 15.9813 10.9713C16.233 10.9047 16.4995 10.9212 16.7412 11.0183C16.9828 11.1153 17.1867 11.2878 17.3224 11.5101C17.3829 11.6109 17.4747 11.6893 17.5839 11.7332C17.693 11.777 17.8135 11.784 17.927 11.7531C17.9764 11.7404 18.0237 11.7204 18.0673 11.6938C18.1904 11.6189 18.2788 11.4982 18.3132 11.3583C18.3477 11.2183 18.3253 11.0705 18.251 10.947V10.947C17.9937 10.5232 17.606 10.1942 17.146 10.0093C16.686 9.82438 16.1785 9.79346 15.6995 9.92117C15.2204 10.0489 14.7957 10.3284 14.4888 10.7177C14.1819 11.1071 14.0095 11.5854 13.9972 12.081C13.9957 12.1523 14.0082 12.2232 14.0341 12.2896C14.0599 12.356 14.0987 12.4166 14.1481 12.468C14.1974 12.5194 14.2565 12.5606 14.3218 12.5891C14.3871 12.6176 14.4574 12.633 14.5287 12.6343V12.6343Z" fill="white"/>
<path d="M30.7458 16.9997L24.6091 15.8143C24.1606 13.9136 22.7875 12.5187 22.0624 11.9635C22.1245 11.1901 22.0672 10.4118 21.8925 9.65586V9.63017C21.7049 8.92886 21.4067 8.26191 21.0093 7.65442C21.5271 6.5036 21.7999 5.2577 21.8104 3.99583C21.821 2.73395 21.569 1.48366 21.0705 0.324361C21.0163 0.20049 20.9178 0.101384 20.7942 0.0465382C20.6706 -0.00830719 20.5309 -0.014921 20.4027 0.0279978C18.2687 0.737089 16.4758 2.2165 15.3744 4.17709C13.9127 3.9484 12.4193 4.02969 10.991 4.41569C9.56279 4.80168 8.23169 5.48374 7.08417 6.41759C5.14952 5.27183 2.85718 4.8886 0.65506 5.34278C0.52219 5.36963 0.404301 5.44552 0.324854 5.55536C0.245408 5.66519 0.21023 5.80091 0.226322 5.93551C0.373549 7.19033 0.780788 8.40068 1.42204 9.48928C2.0633 10.5779 2.92448 11.5208 3.95062 12.2579C3.91304 12.9758 3.98837 13.6952 4.17388 14.3898C4.74092 16.4446 6.19508 18.118 8.29728 19.094C8.32219 19.1075 8.34793 19.1194 8.37434 19.1296C10.4689 20.0413 12.8127 20.2073 15.0148 19.5998C15.0336 19.5978 15.0522 19.5938 15.0702 19.588C15.19 19.5463 15.3172 19.5298 15.4438 19.5396C15.5703 19.5493 15.6935 19.585 15.8056 19.6445C15.9177 19.704 16.0163 19.7859 16.0953 19.8853C16.1743 19.9846 16.2319 20.0992 16.2646 20.2218C16.2973 20.3444 16.3044 20.4725 16.2853 20.5979C16.2663 20.7234 16.2216 20.8436 16.154 20.951C16.0864 21.0584 15.9973 21.1507 15.8925 21.2221C15.7876 21.2936 15.6691 21.3426 15.5444 21.3662V21.3662L15.493 21.382C12.476 22.5279 8.04834 22.3698 5.41663 21.0402C5.32149 20.9926 5.21439 20.9744 5.10887 20.9877C5.00336 21.0011 4.90418 21.0455 4.8239 21.1152L0.182855 25.1873C0.109991 25.2517 0.0558178 25.3345 0.0260281 25.4271C-0.00376158 25.5196 -0.00806789 25.6185 0.0135617 25.7133C0.0351913 25.8081 0.0819582 25.8954 0.148948 25.9659C0.215938 26.0363 0.300677 26.0875 0.394261 26.1139L9.83244 28.7259L10.7294 31.1442C10.9665 31.7804 11.0851 32.1004 11.5593 31.972C11.6315 31.9537 11.6988 31.92 11.7568 31.8732C13.3038 30.6404 15.3942 29.6288 17.6446 29.0262C19.895 28.4236 22.1276 28.2615 24.0816 28.5342C24.2233 28.554 24.367 28.5168 24.4814 28.431C24.5958 28.3451 24.6715 28.2174 24.6921 28.0758C24.701 28.0202 24.701 27.9635 24.6921 27.9079L24.1665 24.883L31.0323 17.9007C31.1335 17.7992 31.1904 17.6617 31.1904 17.5184C31.1904 17.375 31.1335 17.2376 31.0323 17.1361C30.9567 17.0613 30.8603 17.011 30.7557 16.9918L30.7458 16.9997ZM5.22103 14.1013C5.03999 13.4277 4.98308 12.7267 5.05309 12.0327C5.06173 11.9327 5.0427 11.8323 4.9981 11.7424C4.9535 11.6525 4.88503 11.5766 4.80019 11.5229C3.1843 10.438 2.01686 8.80375 1.51451 6.92339C1.45919 6.72581 1.41177 6.50848 1.37424 6.30102C3.2868 6.03397 5.23122 6.47145 6.8451 7.53192C6.95144 7.60075 7.07861 7.62995 7.20433 7.61442C7.33004 7.59889 7.44628 7.5396 7.53266 7.44696C8.61624 6.50734 9.89959 5.82685 11.2854 5.45713C12.6711 5.08741 14.1229 5.03817 15.5305 5.31314C15.6223 5.33887 15.7193 5.33887 15.8111 5.31314C15.8812 5.29246 15.9463 5.25759 16.0024 5.21068C16.0585 5.16378 16.1043 5.10585 16.1371 5.04049C17.004 3.31473 18.4688 1.963 20.2585 1.23716C20.3296 1.43474 20.3929 1.63231 20.4561 1.84569C20.9599 3.71786 20.7683 5.70918 19.9167 7.45091C19.8665 7.54021 19.843 7.64203 19.849 7.74429C19.8549 7.84655 19.8901 7.94496 19.9503 8.02783C20.3642 8.59739 20.6696 9.23836 20.8512 9.91863V9.94629C21.1101 10.9144 20.9619 12.1532 20.9619 12.1651C20.9485 12.2702 20.9665 12.3769 21.0136 12.4718C21.0607 12.5667 21.1348 12.6456 21.2266 12.6985C21.2701 12.7242 25.2335 15.5298 22.987 19.4556C22.2035 20.7623 21.2915 21.9874 20.2644 23.1127C20.0763 23.2661 19.8393 23.3468 19.5966 23.3399C19.3204 23.3622 19.0464 23.2765 18.832 23.1009C18.6536 22.9298 18.5492 22.6958 18.5411 22.4488C18.533 22.2018 18.6218 21.9615 18.7885 21.7791C18.8047 21.7643 18.8199 21.7484 18.834 21.7317C19.7492 20.5862 20.396 19.2501 20.7268 17.8217C20.8837 17.1447 20.7657 16.4331 20.3986 15.8431C20.0316 15.253 19.4454 14.8327 18.7688 14.6743L18.6562 14.6506L13.7385 13.7457C13.6592 13.7309 13.5776 13.7341 13.4996 13.7549C13.4217 13.7758 13.3494 13.8138 13.288 13.8662L8.49486 17.9876C6.8293 17.1361 5.67545 15.7669 5.23091 14.1072L5.22103 14.1013Z" fill="white"/>
<path d="M84.4802 16.2972C85.6775 14.9932 86.6535 14.6791 87.9714 15.254C88.2361 15.3706 88.6115 15.7282 88.5858 15.9258C88.5088 16.5027 88.2618 17.0579 88.0524 17.6111C88.0346 17.6526 87.7817 17.6388 87.6572 17.5993C86.9874 17.4017 86.7918 17.6961 86.7958 18.3263C86.8136 20.4621 86.7405 22.6019 86.8136 24.7357C86.9657 29.2365 83.5259 30.6472 80.2304 30.3587C78.712 30.263 77.2812 29.6151 76.2077 28.5371C75.615 27.9443 75.6644 27.6223 76.4053 26.8261C76.8933 26.2946 77.3142 26.4309 77.7626 26.8715C78.9224 28.0313 80.3588 28.3355 81.9117 28.1182C83.6781 27.8712 84.6165 26.263 84.1364 24.2339C82.4156 25.3462 80.6018 25.6445 78.6972 24.8424C77.7004 24.4289 76.8731 23.69 76.35 22.7461C75.212 20.7387 75.5597 18.0833 77.1719 16.4869C79.0423 14.6297 81.4784 14.5665 84.4802 16.2972ZM84.4328 20.1599C84.437 19.7634 84.362 19.37 84.2122 19.0029C84.0623 18.6358 83.8407 18.3023 83.5602 18.022C83.2797 17.7417 82.9461 17.5202 82.5789 17.3706C82.2116 17.221 81.8182 17.1463 81.4217 17.1508C81.025 17.1461 80.6315 17.2224 80.2652 17.375C79.8989 17.5276 79.5676 17.7532 79.2915 18.0382C79.0154 18.3232 78.8004 18.6614 78.6594 19.0323C78.5185 19.4033 78.4547 19.799 78.4719 20.1954C78.4996 21.9044 79.7325 23.1393 81.4356 23.159C81.8313 23.166 82.2243 23.0932 82.5912 22.9449C82.9581 22.7966 83.2914 22.5759 83.5712 22.296C83.8509 22.0161 84.0714 21.6826 84.2194 21.3156C84.3675 20.9486 84.44 20.5555 84.4328 20.1599V20.1599Z" fill="white"/>
<path d="M109.003 19.1547C109.115 15.9086 110.496 13.5535 113.403 12.3265C116.366 11.0759 119.192 11.4631 121.679 13.6147C122.315 14.166 122.369 14.569 121.952 15.0254C121.029 16.037 120.63 16.1397 119.907 15.5549C117.556 13.6523 114.653 13.838 112.928 16.0113C111.403 17.9258 111.595 20.8894 113.353 22.5985C115.054 24.2542 117.818 24.3095 119.725 22.7269C119.908 22.5616 120.13 22.4447 120.37 22.3869C120.609 22.329 120.86 22.3321 121.098 22.3957C121.337 22.4593 121.555 22.5815 121.734 22.7511C121.913 22.9208 122.047 23.1325 122.124 23.367C122.213 23.6239 122.047 24.0941 121.837 24.3115C120.229 25.9671 118.21 26.5856 115.951 26.4532C114.336 26.3759 112.793 25.7622 111.566 24.709C110.339 23.6558 109.498 22.2234 109.177 20.6385C109.093 20.1473 109.035 19.652 109.003 19.1547V19.1547Z" fill="white"/>
<path d="M132.689 16.3299C132.729 15.6285 132.919 15.1167 133.786 15.1444C134.971 15.1859 135.114 15.2807 135.114 16.4879C135.114 19.2777 135.114 22.0675 135.114 24.8572C135.114 25.8609 134.944 26.1178 134.264 26.1632C133.053 26.2442 132.881 26.1138 132.66 24.8948C131.474 26.017 130.091 26.5998 128.511 26.4418C126.93 26.2837 125.638 25.6041 124.694 24.3119C123.103 22.1386 123.206 18.8964 124.921 16.8633C125.909 15.7035 127.177 15.1365 128.661 15.0199C129.807 14.935 130.17 15.0772 132.689 16.3299ZM126.367 20.7358C126.343 22.6029 127.647 24.0017 129.422 24.0155C131.196 24.0294 132.482 22.6523 132.492 20.7496C132.502 18.847 131.247 17.4541 129.475 17.4323C127.703 17.4106 126.393 18.7778 126.367 20.7358Z" fill="white"/>
<path d="M99.0002 21.3453C98.8955 23.161 100.867 24.6705 102.916 24.2595C103.706 24.1015 104.426 23.651 105.155 23.2835C105.728 22.9931 106.046 23.1037 106.644 23.8762C106.99 24.3168 106.797 24.6251 106.469 24.9431C104.572 26.7865 100.668 26.9742 98.3996 25.3383C96.2164 23.7577 95.5071 20.6222 96.7538 18.0616C97.8839 15.7421 100.518 14.5803 103.29 15.1829C105.627 15.6907 107.251 17.7178 107.346 20.2428C107.379 21.1477 107.178 21.3611 106.263 21.3631L99.0002 21.3453ZM104.552 19.6165C104.416 17.8976 103.092 16.9236 101.29 17.1192C99.9901 17.2614 98.9192 18.4627 99.0812 19.6165H104.552Z" fill="white"/>
<path d="M56.357 24.7645C55.4955 25.9716 54.3358 26.4952 52.9053 26.4597C50.5206 26.3984 48.774 24.6815 48.7325 22.2948C48.697 20.2321 48.7325 18.1674 48.7207 16.1047C48.7207 15.4191 49.023 15.1583 49.6928 15.1524C51.4709 15.1406 51.4709 15.1247 51.4709 16.8871C51.4709 18.4164 51.4591 19.9476 51.4709 21.4748C51.4848 22.5002 51.7633 23.417 52.8105 23.8457C54.3516 24.4938 55.9282 23.4842 55.9875 21.7633C56.0488 19.9851 56.0092 18.2208 56.0132 16.4485C56.0132 15.263 56.1219 15.1524 57.2915 15.1504H57.657C58.635 15.1504 58.7792 15.2966 58.7812 16.3043C58.7812 18.4657 58.7812 20.6253 58.7812 22.7867C58.7812 23.0297 58.7911 23.2728 58.7951 23.5138C58.8049 23.9643 59.044 24.1381 59.4609 24.0097C60.3203 23.741 60.2512 24.472 60.4488 24.9107C60.6602 25.3947 60.7115 25.8254 60.1089 26.1238C58.6666 26.841 57.2856 26.432 56.5526 25.0332C56.4927 24.9398 56.4274 24.8501 56.357 24.7645V24.7645Z" fill="white"/>
<path d="M65.4145 16.5055C66.3312 16.0373 67.1927 15.3991 68.143 15.1482C68.7558 14.9821 69.3983 14.9568 70.0223 15.0743C70.6462 15.1919 71.2355 15.4491 71.7459 15.8268C72.2563 16.2045 72.6745 16.6929 72.9693 17.2552C73.2641 17.8176 73.4277 18.4394 73.4479 19.074C73.5368 21.1584 73.4716 23.2488 73.4736 25.3391C73.4736 25.8686 73.2128 26.1611 72.6833 26.163C70.8241 26.163 70.6957 26.3606 70.7313 24.3849C70.7589 22.903 70.7708 21.4212 70.7313 19.9394C70.672 18.0269 69.1744 16.9758 67.4574 17.5843C66.4695 17.9399 65.9539 18.7362 65.9321 20.0659C65.9045 21.6465 65.9321 23.2271 65.9025 24.8077C65.9025 25.272 66.0862 25.9338 65.4797 26.0662C64.8235 26.1717 64.1534 26.1536 63.5039 26.0129C63.3478 25.9852 63.1878 25.4518 63.1839 25.1495C63.1562 22.9386 63.17 20.7297 63.168 18.5188C63.168 17.531 63.168 17.531 62.2177 17.6376C62.1248 17.6495 61.9609 17.6772 61.949 17.6495C61.7336 17.1279 61.463 16.6103 61.3681 16.0689C61.3306 15.8496 61.6309 15.4505 61.8759 15.324C63.2984 14.5693 64.5451 15.0514 65.4145 16.5055Z" fill="white"/>
<path d="M45.7784 22.0543C45.5631 25.5593 42.8049 26.7506 40.0488 26.4009C38.8552 26.2714 37.7439 25.7308 36.9053 24.8717C36.366 24.3205 36.3679 24.0103 36.8955 23.4492C37.0298 23.3089 37.18 23.1824 37.3044 23.0342C37.7648 22.4909 38.2034 22.4909 38.7092 23.0007C39.4145 23.7119 40.2621 24.0814 41.2777 23.8245C42.3525 23.5558 42.9867 22.7972 43.0104 21.5939C43.0559 19.3356 43.0242 17.0773 43.046 14.819C43.046 14.3429 42.8188 14.2481 42.4177 14.254C41.5444 14.254 40.6691 14.2678 39.7959 14.254C39.0174 14.2382 38.8929 14.0663 38.891 13.114C38.889 12.1617 39.0392 11.968 39.7978 11.9621C41.497 11.9463 43.1981 11.9621 44.8973 11.9621C45.5414 11.9621 45.8278 12.2624 45.8239 12.8947C45.8239 14.4239 45.8239 15.9531 45.8239 17.4843C45.812 17.4685 45.8713 20.531 45.7784 22.0543Z" fill="white"/>
<path d="M138.736 17.3389C136.889 17.1275 136.838 17.0979 136.818 16.274C136.796 15.3948 136.859 15.3533 138.776 15.0885C138.776 14.316 138.809 13.5218 138.776 12.7315C138.736 11.9767 139.058 11.6409 139.789 11.5105C141.506 11.2022 141.54 11.2101 141.54 12.9844V15.1617C142.366 15.1617 143.111 15.1617 143.856 15.1617C144.6 15.1617 144.792 15.379 144.792 16.2048C144.792 17.0307 144.606 17.252 143.865 17.2658C143.125 17.2797 142.374 17.2658 141.579 17.2658C141.579 19.1705 141.516 20.9882 141.605 22.7979C141.655 23.8313 142.662 24.2857 143.684 23.8807C144.705 23.4756 144.715 23.4855 145.067 24.2758C145.531 25.3249 145.462 25.5581 144.537 26.0026C142.216 27.111 138.693 26.2496 138.778 22.5194C138.804 21.0968 138.75 17.6551 138.736 17.3389Z" fill="white"/>
<path d="M90.4358 12.061C90.422 11.3517 90.669 11.002 91.3684 10.84C93.117 10.4329 93.2177 10.4942 93.2177 12.3119C93.2177 15.8353 93.2177 19.3581 93.2177 22.8802C93.2177 23.8562 93.2177 23.8365 94.1542 23.8977C94.2649 23.9141 94.3706 23.9545 94.4641 24.0159C94.5576 24.0773 94.6366 24.1583 94.6956 24.2533C95.3772 25.5692 95.0335 26.2074 93.5615 26.4267C91.73 26.7092 90.4675 25.6522 90.4517 23.7851C90.4358 21.8548 90.4714 14.0367 90.4358 12.061Z" fill="white"/>
</svg>
