<svg width="88" height="82" viewBox="0 0 88 82" fill="none" xmlns="http://www.w3.org/2000/svg">
<path d="M38.6737 7.96778L18.4088 14.2053C11.0239 16.4783 7.87466 22.2025 9.70108 30.0325L14.7082 51.4985C16.5346 59.3285 21.7536 62.4769 29.1384 60.2039L49.4033 53.9664C56.7881 51.6934 59.9181 45.9751 58.0917 38.1451L53.0845 16.6791C51.2581 8.84914 46.0585 5.69475 38.6737 7.96778Z" fill="url(#paint0_linear_261_778)"/>
<g opacity="0.5" filter="url(#filter0_f_261_778)">
<path d="M37.223 17.5688L23.8371 21.6888C18.9591 23.1902 16.8459 26.8297 17.9941 31.7519L21.142 45.2464C22.2902 50.1686 25.7045 52.1068 30.5826 50.6055L43.9685 46.4855C48.8465 44.9841 50.947 41.3486 49.7988 36.4263L46.6509 22.9319C45.5027 18.0096 42.1011 16.0675 37.223 17.5688Z" fill="#E31352"/>
</g>
<g filter="url(#filter1_bd_261_778)">
<path d="M66.6225 44.9514L58.6433 56.2453C58.3076 56.7362 57.8041 57.0565 57.2485 57.1326C56.6929 57.2086 56.1329 57.034 55.6972 56.6487L48.0372 50.0606L41.1382 59.8486C40.6386 60.7188 39.6656 61.1098 38.7708 60.7999C37.8759 60.4901 37.2849 59.5576 37.3328 58.531C37.3286 58.0231 37.4847 57.5291 37.7747 57.1327L46.024 45.4623C46.3556 44.9754 46.8524 44.6553 47.4022 44.5743C47.9519 44.4934 48.5082 44.6584 48.9456 45.0321L56.6056 51.6471L63.3326 42.1548C63.6561 41.6654 64.1468 41.3405 64.6928 41.2544C65.2388 41.1682 65.7933 41.3282 66.2297 41.6977C67.1313 42.4711 67.3056 43.8908 66.6225 44.8976V44.9514Z" fill="url(#paint1_linear_261_778)"/>
<path d="M58.48 56.1299L58.48 56.1299L58.4782 56.1324C58.1723 56.5799 57.7173 56.8665 57.2214 56.9344C56.7258 57.0022 56.2236 56.8472 55.8297 56.4989L55.8276 56.4971L48.1676 49.9089L48.0006 49.7653L47.8737 49.9453L40.9748 59.7334L40.9694 59.741L40.9648 59.749C40.5088 60.5432 39.6326 60.8867 38.8362 60.611C38.0346 60.3334 37.4883 59.4887 37.5326 58.5403L37.5329 58.5403L37.5328 58.5294C37.529 58.0629 37.6725 57.6112 37.9361 57.2508L37.9362 57.2508L37.938 57.2481L46.1873 45.5778L46.1873 45.5778L46.1893 45.5749C46.4916 45.131 46.9405 44.8445 47.4313 44.7722C47.9214 44.7 48.4201 44.8463 48.8152 45.1838C48.8154 45.1839 48.8155 45.184 48.8156 45.1841L56.4749 51.7985L56.6415 51.9423L56.7687 51.7627L63.4958 42.2705L63.4959 42.2705L63.4995 42.2651C63.7941 41.8193 64.2372 41.5287 64.724 41.4519C65.21 41.3752 65.7062 41.5168 66.0999 41.8499C66.9211 42.5547 67.085 43.8597 66.457 44.7853L66.4225 44.8362V44.8879L58.48 56.1299Z" stroke="url(#paint2_linear_261_778)" stroke-width="0.4"/>
</g>
<g filter="url(#filter2_b_261_778)">
<path d="M46.6448 25.5482L46.6446 25.5483L26.0343 36.9985C21.3584 39.5959 21.3583 46.3182 26.0343 48.9156C26.0343 48.9156 26.0343 48.9156 26.0343 48.9156L46.6446 60.3658L46.6447 60.3658C51.5627 63.0969 57.5447 63.0968 62.4659 60.3659L62.4662 60.3658L83.0764 48.9156C87.7524 46.3182 87.7524 39.5959 83.0764 36.9985L62.4662 25.5483L62.4659 25.5482C57.5447 22.8173 51.5661 22.8173 46.6448 25.5482Z" fill="#FF749F" fill-opacity="0.35" stroke="url(#paint3_linear_261_778)" stroke-linecap="round" stroke-linejoin="round"/>
<mask id="path-6-outside-1_261_778" maskUnits="userSpaceOnUse" x="33.4961" y="52.0419" width="43" height="30" fill="black">
<rect fill="white" x="33.4961" y="52.0419" width="43" height="30"/>
<path fill-rule="evenodd" clip-rule="evenodd" d="M34.4961 53.0419V66.1411C34.4961 69.3091 36.0818 72.2635 38.7156 74.0161L44.0802 77.5846C50.4262 81.8042 58.685 81.8042 65.0277 77.5846L70.3922 74.0161C73.0294 72.2635 74.6118 69.3058 74.6118 66.1411V53.0419"/>
</mask>
<path fill-rule="evenodd" clip-rule="evenodd" d="M34.4961 53.0419V66.1411C34.4961 69.3091 36.0818 72.2635 38.7156 74.0161L44.0802 77.5846C50.4262 81.8042 58.685 81.8042 65.0277 77.5846L70.3922 74.0161C73.0294 72.2635 74.6118 69.3058 74.6118 66.1411V53.0419" fill="#FF749F" fill-opacity="0.35"/>
<path d="M35.4961 53.0419C35.4961 52.4896 35.0484 52.0419 34.4961 52.0419C33.9438 52.0419 33.4961 52.4896 33.4961 53.0419H35.4961ZM38.7156 74.0161L38.1617 74.8486L38.1618 74.8487L38.7156 74.0161ZM44.0802 77.5846L43.5263 78.4172L43.5265 78.4174L44.0802 77.5846ZM65.0277 77.5846L64.4738 76.752L64.4738 76.7521L65.0277 77.5846ZM70.3922 74.0161L69.8387 73.1832L69.8384 73.1834L70.3922 74.0161ZM75.6118 53.0419C75.6118 52.4896 75.1641 52.0419 74.6118 52.0419C74.0595 52.0419 73.6118 52.4896 73.6118 53.0419H75.6118ZM33.4961 53.0419V66.1411H35.4961V53.0419H33.4961ZM33.4961 66.1411C33.4961 69.6442 35.2495 72.9108 38.1617 74.8486L39.2696 73.1835C36.914 71.6161 35.4961 68.9741 35.4961 66.1411H33.4961ZM38.1618 74.8487L43.5263 78.4172L44.6341 76.752L39.2695 73.1834L38.1618 74.8487ZM43.5265 78.4174C50.2079 82.8599 58.9033 82.86 65.5816 78.4172L64.4738 76.7521C58.4667 80.7483 50.6445 80.7485 44.6339 76.7519L43.5265 78.4174ZM65.5815 78.4172L70.9461 74.8487L69.8384 73.1834L64.4738 76.752L65.5815 78.4172ZM70.9457 74.8489C73.8623 72.9106 75.6118 69.64 75.6118 66.1411H73.6118C73.6118 68.9715 72.1965 71.6163 69.8387 73.1832L70.9457 74.8489ZM75.6118 66.1411V53.0419H73.6118V66.1411H75.6118Z" fill="url(#paint4_linear_261_778)" mask="url(#path-6-outside-1_261_778)"/>
</g>
<defs>
<filter id="filter0_f_261_778" x="0.68811" y="0.0729904" width="66.4176" height="68.0288" filterUnits="userSpaceOnUse" color-interpolation-filters="sRGB">
<feFlood flood-opacity="0" result="BackgroundImageFix"/>
<feBlend mode="normal" in="SourceGraphic" in2="BackgroundImageFix" result="shape"/>
<feGaussianBlur stdDeviation="8.5" result="effect1_foregroundBlur_261_778"/>
</filter>
<filter id="filter1_bd_261_778" x="22.3301" y="26.2316" width="59.7092" height="49.6737" filterUnits="userSpaceOnUse" color-interpolation-filters="sRGB">
<feFlood flood-opacity="0" result="BackgroundImageFix"/>
<feGaussianBlur in="BackgroundImage" stdDeviation="7.5"/>
<feComposite in2="SourceAlpha" operator="in" result="effect1_backgroundBlur_261_778"/>
<feColorMatrix in="SourceAlpha" type="matrix" values="0 0 0 0 0 0 0 0 0 0 0 0 0 0 0 0 0 0 127 0" result="hardAlpha"/>
<feOffset dx="5" dy="5"/>
<feGaussianBlur stdDeviation="5"/>
<feColorMatrix type="matrix" values="0 0 0 0 1 0 0 0 0 0.321569 0 0 0 0 0.54902 0 0 0 0.5 0"/>
<feBlend mode="normal" in2="effect1_backgroundBlur_261_778" result="effect2_dropShadow_261_778"/>
<feBlend mode="normal" in="SourceGraphic" in2="effect2_dropShadow_261_778" result="shape"/>
</filter>
<filter id="filter2_b_261_778" x="-1.97266" y="-1" width="113.056" height="106.749" filterUnits="userSpaceOnUse" color-interpolation-filters="sRGB">
<feFlood flood-opacity="0" result="BackgroundImageFix"/>
<feGaussianBlur in="BackgroundImage" stdDeviation="12"/>
<feComposite in2="SourceAlpha" operator="in" result="effect1_backgroundBlur_261_778"/>
<feBlend mode="normal" in="SourceGraphic" in2="effect1_backgroundBlur_261_778" result="shape"/>
</filter>
<linearGradient id="paint0_linear_261_778" x1="37.8088" y1="36.186" x2="2.13698" y2="64.9211" gradientUnits="userSpaceOnUse">
<stop stop-color="#FF759F"/>
<stop offset="1" stop-color="#FF196E"/>
</linearGradient>
<linearGradient id="paint1_linear_261_778" x1="64.9329" y1="44.7842" x2="31.8846" y2="46.4114" gradientUnits="userSpaceOnUse">
<stop stop-color="white"/>
<stop offset="1" stop-color="white" stop-opacity="0.2"/>
</linearGradient>
<linearGradient id="paint2_linear_261_778" x1="42.0593" y1="43.5236" x2="52.7355" y2="63.4912" gradientUnits="userSpaceOnUse">
<stop stop-color="white" stop-opacity="0.25"/>
<stop offset="1" stop-color="white" stop-opacity="0"/>
</linearGradient>
<linearGradient id="paint3_linear_261_778" x1="33.0648" y1="28.417" x2="52.5051" y2="68.4606" gradientUnits="userSpaceOnUse">
<stop stop-color="white" stop-opacity="0.25"/>
<stop offset="1" stop-color="white" stop-opacity="0"/>
</linearGradient>
<linearGradient id="paint4_linear_261_778" x1="40.8819" y1="56.2698" x2="56.2639" y2="83.8524" gradientUnits="userSpaceOnUse">
<stop stop-color="white" stop-opacity="0.25"/>
<stop offset="1" stop-color="white" stop-opacity="0"/>
</linearGradient>
</defs>
</svg>
