<svg width="94" height="93" viewBox="0 0 94 93" fill="none" xmlns="http://www.w3.org/2000/svg">
<g opacity="0.5" filter="url(#filter0_f_261_759)">
<rect width="36.3264" height="37.1563" rx="13" transform="matrix(-0.25388 -0.967236 0.964567 -0.26384 30.9727 66.1062)" fill="#8237FF"/>
</g>
<path d="M51.718 31H28.309C19.156 31 13 38.259 13 49.056V73.9745C13 84.741 19.156 92 28.309 92H51.718C60.871 92 67 84.741 67 73.9745V49.056C67 38.259 60.871 31 51.718 31Z" fill="url(#paint0_linear_261_759)"/>
<g filter="url(#filter1_b_261_759)">
<g filter="url(#filter2_f_261_759)">
<mask id="path-3-outside-1_261_759" maskUnits="userSpaceOnUse" x="26.373" y="62.624" width="32" height="16" fill="black">
<rect fill="white" x="26.373" y="62.624" width="32" height="16"/>
<path d="M42.5498 63.624C50.5446 63.624 57.373 65.0022 57.373 70.5104C57.373 76.0229 50.588 77.4485 42.5498 77.4485C34.5549 77.4485 27.7265 76.0704 27.7265 70.5622C27.7265 65.0496 34.5115 63.624 42.5498 63.624Z"/>
</mask>
<path d="M42.5498 63.624C50.5446 63.624 57.373 65.0022 57.373 70.5104C57.373 76.0229 50.588 77.4485 42.5498 77.4485C34.5549 77.4485 27.7265 76.0704 27.7265 70.5622C27.7265 65.0496 34.5115 63.624 42.5498 63.624Z" fill="#BA90FF" fill-opacity="0.35"/>
<path d="M42.5498 64.624C41.9975 64.624 41.5498 64.1763 41.5498 63.624C41.5498 63.0717 41.9975 62.624 42.5498 62.624V64.624ZM42.5498 62.624C43.102 62.624 43.5498 63.0717 43.5498 63.624C43.5498 64.1763 43.102 64.624 42.5498 64.624V62.624ZM42.5498 62.624C46.5729 62.624 50.4314 62.9663 53.3161 64.0674C54.7681 64.6216 56.0357 65.3911 56.9444 66.4645C57.869 67.5567 58.373 68.9072 58.373 70.5104H56.373C56.373 69.3595 56.0236 68.4721 55.4179 67.7567C54.7964 67.0226 53.8573 66.4147 52.6029 65.9359C50.0746 64.9708 46.5215 64.624 42.5498 64.624V62.624ZM58.373 70.5104C58.373 72.1127 57.873 73.4655 56.9537 74.5624C56.0496 75.6411 54.7868 76.418 53.3367 76.9792C50.4561 78.0942 46.5964 78.4485 42.5498 78.4485V76.4485C46.5414 76.4485 50.0933 76.0901 52.6148 75.1141C53.8657 74.6299 54.8015 74.0167 55.4209 73.2777C56.0249 72.557 56.373 71.6644 56.373 70.5104H58.373ZM42.5498 78.4485C38.5266 78.4485 34.6681 78.1063 31.7834 77.0052C30.3314 76.4509 29.0638 75.6815 28.1551 74.608C27.2305 73.5159 26.7265 72.1654 26.7265 70.5622H28.7265C28.7265 71.713 29.076 72.6004 29.6816 73.3158C30.3031 74.05 31.2422 74.6578 32.4967 75.1367C35.0249 76.1017 38.578 76.4485 42.5498 76.4485V78.4485ZM26.7265 70.5622C26.7265 68.9598 27.2265 67.6071 28.1458 66.5101C29.0499 65.4314 30.3127 64.6546 31.7628 64.0933C34.6434 62.9783 38.5031 62.624 42.5498 62.624V64.624C38.5581 64.624 35.0062 64.9825 32.4847 65.9585C31.2338 66.4426 30.298 67.0558 29.6786 67.7948C29.0746 68.5156 28.7265 69.4082 28.7265 70.5622H26.7265Z" fill="url(#paint1_linear_261_759)" mask="url(#path-3-outside-1_261_759)"/>
</g>
<g filter="url(#filter3_b_261_759)">
<mask id="path-5-outside-2_261_759" maskUnits="userSpaceOnUse" x="28" y="11" width="66" height="83" fill="black">
<rect fill="white" x="28" y="11" width="66" height="83"/>
<path fill-rule="evenodd" clip-rule="evenodd" d="M40.0902 33.1663C40.0902 44.9163 49.4628 54.3325 61.1584 54.3325C72.8497 54.3325 82.2266 44.9163 82.2266 33.1663C82.2266 21.4162 72.8497 12 61.1584 12C49.4628 12 40.0902 21.4162 40.0902 33.1663ZM93 78.2995C93 67.4226 78.3328 64.7012 61.1604 64.7012C43.8946 64.7012 29.3207 67.5162 29.3207 78.4017C29.3207 89.2787 43.9879 92.0001 61.1604 92.0001C78.4261 92.0001 93 89.185 93 78.2995Z"/>
</mask>
<path fill-rule="evenodd" clip-rule="evenodd" d="M40.0902 33.1663C40.0902 44.9163 49.4628 54.3325 61.1584 54.3325C72.8497 54.3325 82.2266 44.9163 82.2266 33.1663C82.2266 21.4162 72.8497 12 61.1584 12C49.4628 12 40.0902 21.4162 40.0902 33.1663ZM93 78.2995C93 67.4226 78.3328 64.7012 61.1604 64.7012C43.8946 64.7012 29.3207 67.5162 29.3207 78.4017C29.3207 89.2787 43.9879 92.0001 61.1604 92.0001C78.4261 92.0001 93 89.185 93 78.2995Z" fill="#BA90FF" fill-opacity="0.35"/>
<path d="M61.1584 55.3325C48.9062 55.3325 39.0902 45.4642 39.0902 33.1663H41.0902C41.0902 44.3684 50.0195 53.3325 61.1584 53.3325V55.3325ZM83.2266 33.1663C83.2266 45.4643 73.4063 55.3325 61.1584 55.3325V53.3325C72.2932 53.3325 81.2266 44.3683 81.2266 33.1663H83.2266ZM61.1584 11C73.4063 11 83.2266 20.8682 83.2266 33.1663H81.2266C81.2266 21.9643 72.2932 13 61.1584 13V11ZM39.0902 33.1663C39.0902 20.8683 48.9062 11 61.1584 11V13C50.0195 13 41.0902 21.9641 41.0902 33.1663H39.0902ZM61.1604 63.7012C69.7693 63.7012 77.8706 64.3793 83.851 66.4779C86.8478 67.5295 89.3827 68.9616 91.1756 70.9087C92.9895 72.8786 94 75.3301 94 78.2995H92C92 75.8305 91.1771 73.8629 89.7043 72.2634C88.2105 70.6411 86.0053 69.3534 83.1887 68.3651C77.5424 66.3837 69.7239 65.7012 61.1604 65.7012V63.7012ZM28.3207 78.4017C28.3207 75.4324 29.3238 72.9749 31.1287 70.995C32.9132 69.0375 35.4388 67.5919 38.4307 66.5273C44.4006 64.4029 52.5032 63.7012 61.1604 63.7012V65.7012C52.5518 65.7012 44.7346 66.407 39.1011 68.4115C36.2913 69.4114 34.0943 70.7106 32.6067 72.3424C31.1394 73.9519 30.3207 75.9283 30.3207 78.4017H28.3207ZM61.1604 93.0001C52.5514 93.0001 44.4501 92.322 38.4698 90.2234C35.4729 89.1718 32.938 87.7397 31.1452 85.7926C29.3313 83.8227 28.3207 81.3712 28.3207 78.4017H30.3207C30.3207 80.8708 31.1436 82.8383 32.6164 84.4378C34.1103 86.0602 36.3155 87.3479 39.132 88.3362C44.7784 90.3176 52.5969 91.0001 61.1604 91.0001V93.0001ZM94 78.2995C94 81.2688 92.9969 83.7264 91.1921 85.7063C89.4075 87.6638 86.8819 89.1094 83.8901 90.174C77.9201 92.2984 69.8176 93.0001 61.1604 93.0001V91.0001C69.7689 91.0001 77.5862 90.2943 83.2196 88.2898C86.0294 87.2899 88.2264 85.9907 89.714 84.3589C91.1813 82.7494 92 80.773 92 78.2995H94Z" fill="url(#paint2_linear_261_759)" mask="url(#path-5-outside-2_261_759)"/>
</g>
</g>
<defs>
<filter id="filter0_f_261_759" x="0.620361" y="0.133972" width="87.3218" height="87.005" filterUnits="userSpaceOnUse" color-interpolation-filters="sRGB">
<feFlood flood-opacity="0" result="BackgroundImageFix"/>
<feBlend mode="normal" in="SourceGraphic" in2="BackgroundImageFix" result="shape"/>
<feGaussianBlur stdDeviation="12" result="effect1_foregroundBlur_261_759"/>
</filter>
<filter id="filter1_b_261_759" x="2.72656" y="-13" width="115.273" height="130" filterUnits="userSpaceOnUse" color-interpolation-filters="sRGB">
<feFlood flood-opacity="0" result="BackgroundImageFix"/>
<feGaussianBlur in="BackgroundImage" stdDeviation="12"/>
<feComposite in2="SourceAlpha" operator="in" result="effect1_backgroundBlur_261_759"/>
<feBlend mode="normal" in="SourceGraphic" in2="effect1_backgroundBlur_261_759" result="shape"/>
</filter>
<filter id="filter2_f_261_759" x="13.7266" y="49.624" width="57.6465" height="41.8245" filterUnits="userSpaceOnUse" color-interpolation-filters="sRGB">
<feFlood flood-opacity="0" result="BackgroundImageFix"/>
<feBlend mode="normal" in="SourceGraphic" in2="BackgroundImageFix" result="shape"/>
<feGaussianBlur stdDeviation="6.5" result="effect1_foregroundBlur_261_759"/>
</filter>
<filter id="filter3_b_261_759" x="13.3208" y="-4" width="95.6792" height="112" filterUnits="userSpaceOnUse" color-interpolation-filters="sRGB">
<feFlood flood-opacity="0" result="BackgroundImageFix"/>
<feGaussianBlur in="BackgroundImage" stdDeviation="7.5"/>
<feComposite in2="SourceAlpha" operator="in" result="effect1_backgroundBlur_261_759"/>
<feBlend mode="normal" in="SourceGraphic" in2="effect1_backgroundBlur_261_759" result="shape"/>
</filter>
<linearGradient id="paint0_linear_261_759" x1="40" y1="31" x2="40" y2="92" gradientUnits="userSpaceOnUse">
<stop stop-color="#BC94FF"/>
<stop offset="1" stop-color="#9F66FF"/>
</linearGradient>
<linearGradient id="paint1_linear_261_759" x1="52.6538" y1="65.2346" x2="46.7042" y2="81.0368" gradientUnits="userSpaceOnUse">
<stop stop-color="white" stop-opacity="0.25"/>
<stop offset="1" stop-color="white" stop-opacity="0"/>
</linearGradient>
<linearGradient id="paint2_linear_261_759" x1="82.8633" y1="21.3201" x2="30.6649" y2="72.78" gradientUnits="userSpaceOnUse">
<stop stop-color="white" stop-opacity="0.25"/>
<stop offset="1" stop-color="white" stop-opacity="0"/>
</linearGradient>
</defs>
</svg>
